<?xml version="1.0" encoding="UTF-8"?>
<svg id="Layer_2" data-name="Layer 2" xmlns="http://www.w3.org/2000/svg" viewBox="0 0 572.69 382.12">
  <defs>
    <style>
      .cls-1 {
        fill: #d4b99a;
      }

      .cls-1, .cls-2, .cls-3 {
        fill-rule: evenodd;
      }

      .cls-2 {
        fill: #ecf3ff;
      }

      .cls-3 {
        fill: #b27950;
      }
    </style>
  </defs>
  <g id="Layer_1-2" data-name="Layer 1">
    <g>
      <path id="path0" class="cls-2" d="M95.11,72.91c-1.23.66-2.88,1.82-3.65,2.58-.78.76-1.98,1.73-2.68,2.14-1.95,1.16-1.64,1.99.69,1.84,2.67-.17,2.64.1-.97,7.97-.41.89-.75,2.76-.76,4.16-.01,2.04-.17,2.57-.82,2.69-.79.15-1,.62-.84,1.86.05.34-.35.73-.87.86-.59.16-.95.63-.95,1.26,0,.56-.18,1.21-.4,1.45-1.25,1.36-2.4,5.89-1.69,6.67.99,1.09.89,1.5-.33,1.32-1.07-.15-1.66.86-2.63,4.48-.2.76-1.11,3.37-2,5.78-.9,2.42-2.7,7.73-4.01,11.8-2.5,7.8-4.17,10.41-6.64,10.41-.53,0-1.33.34-1.79.76-.55.5-2.23.88-4.96,1.14-2.27.21-5.03.58-6.14.83-1.11.25-3.89.69-6.18.98-2.29.29-4.72.83-5.39,1.19-2.6,1.39-5.65.55-4.01-1.1.42-.42.22-.62-.91-.84-2.62-.53-2.31-2.2,1.06-5.77.38-.4.69-1.04.69-1.41s.2-.88.44-1.12c.49-.48,3.2-7.62,3.6-9.46.14-.64.4-1.36.59-1.62.19-.25.49-1.09.67-1.85.18-.76.86-2.74,1.5-4.4,2.37-6.1,4.9-12.29,5.48-13.42.33-.64,1.89-3.86,3.46-7.17s4.22-8.04,5.87-10.51c3.65-5.47,4.09-7.32,2.23-9.52-2.75-3.27-6.39-1.65-9.92,4.42-.85,1.46-2.1,3.59-2.77,4.74-.67,1.15-1.71,3.23-2.3,4.63-.59,1.4-1.6,3.69-2.23,5.09-.63,1.4-1.45,3.27-1.82,4.17-.37.89-.87,1.98-1.11,2.42-.24.44-.44,1.02-.44,1.28s-.61,1.78-1.35,3.36c-1.3,2.77-1.86,4.25-5.13,13.52-2.79,7.92-5.14,14.35-5.81,15.86-.37.83-.67,1.86-.67,2.28,0,.99-.8,3.5-1.99,6.27-1.04,2.41-1.5,2.7-9.58,6.05-3.7,1.54-9.82,4.58-14.22,7.09-2.32,1.32-2.97,2.96-1.72,4.34,1.4,1.55,3,1.08,9.27-2.71,13.06-7.9,14.18-7.96,12.16-.66-.54,1.97-1.13,4.42-1.3,5.45-.17,1.03-.5,2.17-.73,2.54-.23.37-.57,1.61-.76,2.76s-.68,4.06-1.08,6.48c-2.15,12.81-.51,19.53,5.45,22.36,3.41,1.62,4.86.68,2.71-1.77-2.23-2.54-2.49-9.56-.68-18.28.85-4.12,1.12-6.39,1.09-9.4,0-1.22.29-2.83.67-3.56.38-.73.69-1.78.69-2.32,0-.75.2-.91.87-.7,1.21.38,1.79-1.84.77-2.97-.78-.86-.93-2.67-.31-3.65.32-.5.45-.48.67.11.4,1.04,1.7.91,1.7-.16,0-.49.21-1.03.46-1.18.25-.16.46-.85.46-1.53,0-2.81,2.87-5.18,6.27-5.18.46,0,1.48-.21,2.26-.47,2.29-.75,12.62-3.09,17.38-3.93,2.42-.43,4.87-.97,5.46-1.2,3.26-1.28,4.08.05,2.57,4.17-.61,1.67-1.31,3.77-1.54,4.66-.23.89-1.08,4.01-1.89,6.94-1.51,5.5-1.83,7.02-2.78,13.02-.73,4.59-.44,5.53,2.67,8.79,4.25,4.46,7.34,3.36,6.35-2.27-.44-2.51-.47-7.55-.05-9.59.16-.76.17-1.02.04-.58-.29.94-1.14,1.05-1.94.25-.82-.82-.68-1.8.41-2.96.55-.58,1.06-1.89,1.19-3.04.28-2.45,1.03-4.09,1.86-4.09.44,0,.59-.56.5-1.97-.12-1.89-.07-1.96,1.15-1.88,1.41.1,1.71-.77.58-1.7-.88-.73-.4-1.54.74-1.24.48.13.87.04.87-.2s.52-1.21,1.15-2.17c1.67-2.52,1.88-7.5.35-8.17-1.07-.47-1.44-2.25-.58-2.79.25-.16.47-.64.47-1.07,0-.43.41-1.3.89-1.93.62-.8.74-1.32.42-1.71-.33-.39-.11-1.38.69-3.25.64-1.48,1.42-3.78,1.74-5.11.32-1.34.74-2.43.94-2.43s.49-.72.65-1.6c.17-.88.59-1.84.95-2.14.35-.29.64-.93.64-1.41s.21-.87.46-.87.46.42.46.92.18.93.4.93c.53,0,2.37-4.29,2.37-5.53,0-.53.19-1.32.43-1.76.23-.44,1.4-3.41,2.58-6.59s2.34-6.2,2.57-6.71c.23-.51.85-2.05,1.38-3.43.53-1.38,1.45-3.57,2.05-4.86.6-1.29,1.43-3.12,1.84-4.07.41-.94,1.5-2.7,2.42-3.9,3.24-4.25,2.97-6.76-.92-8.52-2.47-1.12-2.53-1.12-5.19.3M237.63,75.61c-1.25,1.3-2.39,3.24-3.42,5.85-.85,2.15-2.03,4.95-2.6,6.22-2.19,4.82-5.61,14.79-6.08,17.7-.13.83-.42,1.62-.65,1.76-.68.42-.46,2.05.28,2.05,1.12,0,.66,1.61-1.08,3.78-.37.47-.49,1.18-.3,1.79.39,1.21-.59,2.03-1.52,1.26-.51-.42-.56.04-.3,2.59.32,3.09-.04,5.1-1.49,8.45-.35.8-.63,1.88-.63,2.4s-.25,1.53-.55,2.24c-.31.72-.59,1.82-.64,2.46-.14,1.94-2.38,11.41-2.96,12.52-.21.4-.28,1.26-.15,1.92.24,1.24-1.05,4.53-1.76,4.53-.23,0-.41-.21-.41-.46s-.21-.46-.46-.46c-.7,0-.55,1.38.18,1.66,1.3.5,1.37,5.74.08,5.74-.3,0-.78-.57-1.08-1.27-.44-1.05-.48-.64-.27,2.31.21,2.89.11,3.81-.51,4.76-.48.74-.87,2.62-1.05,5.04l-.27,3.86,1.76,2.11c2.42,2.9,8.55,5.98,8.55,4.3,0-.04.42-1.21.92-2.6.51-1.39.93-2.95.93-3.46.02-2.69.87-3.23,5.56-3.48,6.65-.35,8.44-1.38,16.35-9.43,9.64-9.81,14.79-16.95,17.19-23.81.65-1.85,1.36-3.71,1.59-4.15,2.7-5.14,2.99-15.53.54-19.57-1.94-3.19-7.11-6.95-9.46-6.87-.81.03-2.2-.09-3.1-.26-2.49-.48-7.17,4.15-12.62,12.5-1.33,2.04-3.43,5.68-4.66,8.1-1.23,2.42-2.39,4.6-2.57,4.86-.18.25-.62,1.19-.96,2.08-.34.89-1.11,2.21-1.7,2.93-.59.72-1.07,1.62-1.07,1.99s-.21.56-.46.4c-.25-.16-.46-.78-.46-1.39s.21-1.23.46-1.39c.25-.16.46-.91.46-1.68s.22-1.81.5-2.32c.48-.89,1.41-3.91,2.27-7.34,1.97-7.88,4.78-17.37,5.65-19.12.23-.46.85-2.23,1.37-3.93.52-1.7,1.46-4.23,2.09-5.63.63-1.4,1.31-2.96,1.52-3.47,1.11-2.77,3.54-7.58,4.43-8.79,4.49-6.09,3.29-9.84-3.49-10.91-2.01-.32-2.15-.26-3.95,1.61M295.61,75.25c-.84.24-3.87,4.6-6.39,9.19-.84,1.53-1.97,3.5-2.51,4.4-2.12,3.45-4.95,9.8-5.32,11.9-.21,1.21-.81,3.46-1.33,4.98-1.48,4.34-1.93,6-1.93,7.09,0,.59-.29,1.01-.69,1.01-.38,0-.69.37-.69.83s-.42,2.01-.92,3.46c-.51,1.45-.93,3.68-.93,4.95,0,1.79-.2,2.45-.89,2.88-.74.46-.85.92-.64,2.68.19,1.61.07,2.27-.49,2.74-.48.4-.75,1.35-.75,2.69,0,1.65-.14,2.02-.69,1.81-.57-.22-.67.19-.58,2.28.06,1.4-.1,2.69-.36,2.88-3.64,2.54-4.7,18.29-1.62,24.07,6.21,11.64,16.27,11.33,25.39-.8,2.45-3.26,3.06-4.03,5.27-6.64.99-1.16.69-1.69-.36-.63-.93.93-1.34.94-2.08.04-.34-.41-1-.6-1.56-.47-.54.13-.72.12-.4-.03.32-.15.58-.48.58-.73s.43-1.07.95-1.81c.92-1.3.88-2.27-.09-2.27-.26,0-4.21,3.64-8.78,8.1-4.58,4.46-8.68,8.1-9.14,8.1-2.44,0-3.68-5.95-2.82-13.49.27-2.38.58-5.17.69-6.21.11-1.04.54-3.12.95-4.63.42-1.5.95-3.98,1.18-5.51.24-1.53.73-3.33,1.11-4,.37-.68.69-1.82.7-2.55,0-.72.31-1.84.68-2.47.36-.64.68-1.78.69-2.54.02-.76.33-1.91.69-2.54.36-.64.67-1.68.68-2.31,0-.64.43-1.84.94-2.67.51-.83.92-1.92.92-2.42s.51-2,1.13-3.34c.62-1.34,1.37-3.35,1.65-4.47,1.19-4.61,6.77-15.79,11.23-22.49,2.03-3.05,3.69-6.04,3.69-6.64,0-2.5-4.39-5.2-7.16-4.41M448.71,76.13c-3.86.97-6.36,3.04-12.47,10.36-1.58,1.89-3.44,4.05-4.14,4.81-.7.76-1.27,1.6-1.27,1.86,0,.48-2.11,3.74-5.14,7.95-.92,1.27-1.8,2.62-1.97,3.01s-.67,1.26-1.11,1.94c-2.38,3.7-5.97,9.53-6.49,10.54-.33.64-.85,1.58-1.16,2.09-23.26,38.06-25.71,53.88-9.51,61.42,9.16,4.27,15.58,3.78,28.32-2.15,1.81-.84,4.75-2.1,6.53-2.8,1.78-.7,3.77-1.77,4.42-2.38.65-.61,1.63-1.11,2.18-1.11s1.64-.63,2.42-1.39c.78-.76,1.61-1.39,1.85-1.39s1.12-.6,1.95-1.33c.84-.73,1.99-1.47,2.56-1.65.57-.18,1.17-.84,1.33-1.47.2-.81.7-1.23,1.68-1.43.77-.15,1.48-.62,1.59-1.03.11-.41,1.58-1.68,3.27-2.82,1.69-1.14,4.36-3.16,5.92-4.5,1.56-1.34,3.29-2.43,3.83-2.43s.99-.29.99-.68c0-.82,1.67-1.8,2.35-1.38.57.35.24,2.26-.98,5.61-.48,1.32-1.11,3.78-1.41,5.48l-.54,3.08,1.77,1.81c.97,1,2.04,1.81,2.37,1.81s.6.2.6.46c0,.77,3.61,2.78,4.96,2.77,1.55-.02,3.05-1.28,5.5-4.63,4.63-6.33,7.88-12.84,4.94-9.91-1.37,1.37-1.02-.21.81-3.6.63-1.18.53-1.44-.26-.65-.38.38-.69.85-.69,1.03,0,1.83-4.82,4.04-5.25,2.41-.24-.9-.52-.68-2.48,1.94-2.65,3.54-3.64,4.09-3.19,1.8.17-.86.49-2.5.72-3.64.22-1.15.85-3.54,1.4-5.32.55-1.78,1.17-3.97,1.38-4.86.88-3.72,4.42-12.58,7.19-18.05,3.12-6.15,2.91-8.72-.81-9.78-1.08-.31-2.17-.73-2.41-.94-.74-.65-2.39-.43-3.15.43-2.44,2.72-7.34,14.24-7.17,16.88.1,1.52-.07,2.02-.8,2.42-.51.28-1.86,1.43-3.01,2.57-3.17,3.15-15.47,12.65-17.1,13.2-.79.27-2.03,1.1-2.75,1.85-.72.75-2.02,1.84-2.88,2.42-.86.58-2.29,1.56-3.18,2.18-.89.62-2.24,1.47-3.01,1.89-.76.42-1.91,1.23-2.55,1.79-9.24,8.21-29.24,15.13-37.94,13.12-6.97-1.61-5.77-11.3,3.8-30.68,1.88-3.82,3.99-8.09,4.68-9.49,1.5-3.05,2.71-5.22,6.35-11.37,1.51-2.56,2.76-4.8,2.76-4.97,0-.75,6.31-9.77,10.04-14.34,2.24-2.75,4.4-5.56,4.79-6.25,1.54-2.7,3.15-4.99,4.09-5.83.54-.49.98-1.14.98-1.45,0-2.32,11.16-10.99,12.47-9.68.98.99.87,7.46-.16,9.53-.4.81-.73,1.82-.73,2.23s-.19.96-.41,1.2c-.57.6-1.9,5.41-1.9,6.84,0,1.55,2.11,4.01,3.44,4.01,1.4,0,3.5-2.68,3.5-4.47,0-.82,2.44-7.9,3.39-9.83,3.88-7.92-5.67-17.44-15.11-15.07M431.95,100.01c-.44.86-1.46,2.49-2.28,3.64s-2.61,3.92-3.99,6.16c-1.38,2.24-3.18,5.16-4,6.48-.83,1.32-1.63,2.76-1.79,3.2-.16.44-.47.81-.7.81s-.41.4-.41.89-.16.96-.35,1.04c-.62.28-3.99,5.61-6.24,9.87-3.56,6.74-6.36,12.46-6.36,12.98,0,.27-.23.72-.52,1-.61.6-4.58,9.82-4.58,10.62,0,.3-.36,1.18-.81,1.96-.67,1.17-.71,1.58-.23,2.34.32.51.56,1.61.54,2.44l-.04,1.51-.47-1.27c-.7-1.91-1.25-1.54-1.59,1.06-.45,3.37-1.35,2.68-1.29-.98.13-7.32,7.02-23.73,16.65-39.65,1.12-1.85,2.04-3.48,2.04-3.61,0-.24,3.9-6.15,6.42-9.74.74-1.05,1.49-2.35,1.66-2.89.42-1.34,5.18-7.22,7.77-9.61,1.02-.95,1.37.15.56,1.75M200.86,103.48c-.89.63-2.1,1.6-2.69,2.15l-1.07,1,1.46.38c1.41.36,1.43.42.72,1.4-.41.56-.93,1.45-1.16,1.99-.23.53-1.22,1.89-2.19,3.02-2.96,3.42-5.15,6.6-6.69,9.71-.81,1.63-1.95,3.6-2.55,4.39-.6.79-1.09,1.76-1.09,2.17,0,1.01-1.71,2.13-2.81,1.84-.61-.16-.9,0-.9.51,0,.41.31.75.69.75.93,0,.88.88-.07,1.25-.44.17-.98-.01-1.3-.44-.47-.64-.61-.58-1.08.5-.85,1.95-3.98,7.38-4.61,8.02-.32.32-.58.89-.58,1.28,0,.61-.1.6-.74-.04-.68-.68-.68-1.01-.01-3.92,1.68-7.3,1.91-8.92,1.86-12.89-.07-5.06-.94-7.49-2.84-7.89-.7-.15-1.82-.57-2.5-.93-3.32-1.79-6.02-.42-8.44,4.31-.42.83-.98,1.5-1.23,1.5s-.69.5-.97,1.11c-.28.61-.97,1.36-1.54,1.66-.57.31-1.39,1.21-1.82,2.02-.98,1.85-4.48,7.03-6.03,8.93-.65.8-1.19,1.77-1.19,2.17,0,.92-1.69,3.66-3.57,5.8l-1.49,1.69v-1.33c-.02-1.09,2.54-8.82,4.15-12.55.22-.51.84-1.97,1.37-3.24,1.71-4.07,5.29-9.95,6.07-9.95,2.61,0,6.55-7.33,6.14-11.41-.35-3.42-.16-3.32-2.81-1.53-1.89,1.27-2.22,1.35-3.57.86-3.74-1.35-10.25,6.93-11.13,14.16-.19,1.53-.84,3.84-1.45,5.14-2.39,5.07-3.91,10.24-3.4,11.58.68,1.79.19,2.92-.76,1.74-.66-.82-.69-.74-.45,1.06.2,1.47.09,2.04-.45,2.34-.8.45-.87,1.17-.41,4.39.34,2.37-.29,2.96-1.47,1.39-.81-1.07-.92.81-.14,2.28.5.94-.46,6.36-1.48,8.36-.23.44-.41,1.59-.42,2.54,0,2.29-.73,3.48-1.41,2.32-.26-.44-.68-.81-.92-.81s-.21.38.1.86c.68,1.1.2,2.45-.74,2.09-.41-.15-.82.03-.98.44-.79,2.07,4.26,7.25,7.07,7.25,1.36,0,1.51-.15,1.78-1.74.53-3.17,1.23-4.92,4.26-10.76,3.63-7,5.2-9.71,5.6-9.72.17,0,1.03-1.15,1.92-2.55.89-1.4,2.71-3.94,4.05-5.65,1.34-1.71,2.43-3.35,2.43-3.65s.33-.81.74-1.15c.8-.67,4.23-5.8,5.41-8.1.99-1.93,4.02-5.51,4.67-5.51.29,0,.62.94.75,2.08.21,1.91.35,2.09,1.62,2.24,1.83.21,2.19.91,1.27,2.46-.59.99-.64,1.51-.25,2.38.36.78.36,1.7.02,3.15-.75,3.18-.79,3.27-1.22,3.01-.68-.42-1.02-3.83-.51-5.16.38-1,.32-1.43-.3-2.11-1.25-1.38-1.91-1.03-2.14,1.11-.22,2.03-.96,6.05-1.74,9.49-1.64,7.17,2.03,15.84,6.71,15.84.97,0,3.36-3.3,4.22-5.82.42-1.25,1.68-4.21,2.8-6.58,1.11-2.37,2.03-4.37,2.03-4.46s1.04-2.34,2.31-5.03c1.27-2.68,2.31-5.17,2.31-5.52s.6-1.46,1.33-2.46c.73-1,2.01-3.08,2.85-4.6,6.05-11.03,10.63-15.95,12.71-13.65.46.51,1.11.92,1.45.92,1.45,0,1.26,3.95-.56,11.89-.36,1.58-.66,3.61-.66,4.51,0,1.09-.21,1.64-.64,1.64-1.07,0-1.12-.89-.43-8.28.64-6.82.61-8.38-.19-8.38-.32,0-1.77,7.15-2.77,13.65-.33,2.13-.34,9.79-.03,17.46.12,3.01-.63,4.55-.95,1.96-.34-2.75-1.24-.78-1.07,2.37.53,10.29,4.65,17.26,9.63,16.3,2.79-.54,2.17-5.35-.65-5.13-1.14.09-1.51-.1-1.79-.92-.68-2.06-.36-19.35.41-22.32.4-1.53.85-3.92,1.02-5.32.16-1.4.48-3.59.71-4.86.23-1.27.74-4.4,1.14-6.94.4-2.54.91-5.74,1.13-7.11,1.02-6.31.37-8.54-3.06-10.46-2.52-1.41-2.7-1.41-4.76.06M233.29,106.07c-.59,1.59-1.25,3.92-1.46,5.17-.5,2.89-1.66,5.36-2.53,5.36s-.86-1.42,0-2.57c.37-.49.69-1.54.69-2.31,0-.78.32-1.82.69-2.31.37-.49.69-1.43.69-2.08.02-1.86,1.83-5.28,2.46-4.65.38.38.24,1.28-.56,3.41M284.88,107.69c-.5.5-.76-.2-.41-1.09.33-.83.35-.84.52-.03.09.47.05.97-.1,1.12M540.65,107.92c-1.63,1.85-3.3,4.64-5.75,9.6-2.69,5.43-2.8,5.68-4.14,9.25-.52,1.4-1.13,2.96-1.35,3.47-.42.97-.84,2.24-3.25,9.72-.82,2.55-1.66,5.04-1.88,5.55-.21.51-.73,2.18-1.15,3.7-.42,1.53-1.19,4.13-1.71,5.78-1.72,5.5-3.09,10.48-5.98,21.75-2.05,8.01-2.69,18.6-1.28,21.35.49.96,7.27,5.02,8.38,5.02s1.04-.77-.05-3.3c-1.41-3.28-1.53-5.74-.5-10.35.51-2.29,1.05-4.68,1.19-5.32.14-.64.45-1.57.69-2.08.24-.51,1.18-3.01,2.1-5.55.92-2.54,1.97-5.43,2.33-6.42,1.77-4.86,2.28-5.17,5.1-3.12,7.64,5.53,14.67,3.48,25.63-7.49,14.99-15.01,17.62-41.51,4.45-44.89l-2.68-.69-2.9,2.85c-1.74,1.71-2.83,3.15-2.73,3.6.09.41-.65,1.7-1.66,2.86-1.72,1.99-6.13,8.24-8.17,11.59-.51.84-1.62,2.65-2.47,4.03-2.6,4.23-6.08,10.22-7.77,13.38-.88,1.65-1.78,3.32-1.99,3.7-.21.38-.77,1.48-1.25,2.44-1.04,2.12-2.19,2.12-2.4,0-.1-1,.48-2.81,1.76-5.54,1.29-2.74,1.81-4.41,1.63-5.15-.15-.6-.09-1.33.15-1.62.23-.29.53-1.39.66-2.44.13-1.05.81-3.24,1.5-4.86.69-1.62,1.42-3.37,1.61-3.87.19-.51,1.13-2.9,2.1-5.32.96-2.42,2.04-5.19,2.38-6.16.35-.97,1.5-3.26,2.55-5.09,4.63-8.05,4.73-8.94,1.19-10.42-3.02-1.25-3.2-1.25-4.33.03M334.06,109.3c-6.44,2.2-12.07,7.52-18,17.01-.87,1.4-1.75,2.62-1.94,2.7-.19.09-.35.33-.35.55s-1.11,2.23-2.47,4.47c-2.41,3.98-4.01,7.76-4.01,9.5,0,.48-.35,1.53-.78,2.35-.43.81-.73,2.18-.68,3.03.05.85-.15,1.85-.45,2.21-.4.48-.42,1.14-.09,2.38.25.95.51,2.97.56,4.49.41,11,11.46,18.94,20.48,14.72,3.41-1.6,12.22-9.29,14.12-12.32.66-1.06,1.97-2.86,2.9-4.01,3.63-4.45,5.14-7.55,2.03-4.17-4.15,4.51-4.47,4.77-5.03,4-.48-.66-.62-.65-1.42.08-3.28,3.01-5.28,3.23-2.97.32,2.42-3.05,1.4-2.58-3.74,1.7-6.64,5.54-7.46,6.16-9.48,7.25-6.01,3.21-9.25,1.82-9.15-3.94.12-6.51,3.75-19.51,5.48-19.6.25-.01,1.83-.07,3.51-.12,7.72-.25,16.29-7.27,22.58-18.5,5.61-10.02-.47-17.74-11.11-14.11M129.58,112.09c-1.28,2.23-1.75,3.74-2.22,7.07-.31,2.23-2,6.02-3.83,8.62-1.05,1.48-1.11,2.24-.17,2.24,1.43,0-.89,5.25-2.62,5.94-.92.36-.39,1.99.54,1.69.82-.26.88-.16.51.78-1.27,3.25-3.1,11.98-4.92,23.48-1.54,9.74-.03,18.08,3.28,18.08.34,0,1.38.52,2.32,1.16,2.76,1.87,4.28,1.04,3.3-1.79-.49-1.4.09-9.49,1.07-14.87.23-1.27.75-4.5,1.15-7.17.4-2.67,1.03-6,1.4-7.4.36-1.4,1.3-5.25,2.09-8.56.78-3.31,1.93-8.1,2.56-10.64.62-2.54,1.14-5.25,1.14-6.01s.63-3.15,1.39-5.3c.79-2.25,1.26-4.31,1.09-4.86-.4-1.33-2.05-3.03-2.95-3.03-.42,0-1.16-.3-1.65-.68-1.47-1.11-2.28-.82-3.47,1.26M517.27,110.93c-1.54,1.83-2.21,3.38-2.5,5.73-.45,3.69-2.34,8.92-3.49,9.67-.68.44-2.72,4.61-2.25,4.61.25,0,.45-.21.45-.46s.31-.46.69-.46c1.15,0,.79,1.56-.92,3.97-1.73,2.44-2.01,3.44-.97,3.44.56,0,.55.35-.03,2.43-2.18,7.8-2.1,7.41-3.11,13.77-1.6,9.99-1.77,11.58-1.84,16.66l-.07,5.31,1.59,2.2c.88,1.21,1.86,2.2,2.18,2.2s1.35.52,2.29,1.16c2.86,1.94,5.22,1.06,3.64-1.36-.61-.94-.72-1.84-.52-4.31.34-4.1,1.1-10.28,1.41-11.45.13-.51.58-3.22.99-6.02.84-5.78,1.92-11.03,2.6-12.7.25-.62.64-1.98.87-3.01.22-1.03.92-4.27,1.55-7.2.63-2.93,1.47-6.56,1.88-8.08.4-1.52.73-3.17.73-3.67,0-.99.71-3.38,1.69-5.67,1.12-2.62-.36-6.18-2.57-6.18-.44,0-1.2-.3-1.7-.68-1.19-.9-1.77-.87-2.59.1M256.46,113.36c1.88,4.91.64,10.72-4.49,21.09-3.82,7.72-3.73,7.47-2.75,7.68.6.13.56.41-.23,1.88-.51.95-.93,2.05-.93,2.43s-.52,1.15-1.16,1.7c-.64.55-1.16,1.24-1.16,1.53s-.75,1.24-1.67,2.11c-.92.88-1.97,2.27-2.32,3.1-.35.83-.9,1.5-1.22,1.5-.33,0-.61.68-.65,1.58-.08,1.56-.07,1.57.81.69,1.32-1.32,1.82-1.12,1.33.56-.54,1.88-1.43,2.83-4.7,5.02-2.63,1.76-3.51,2.01-1.84.53,1.62-1.43,2.61-3.29,1.75-3.29-.41,0-.75.21-.75.46s-.3.46-.67.46c-.64,0-1.42.63-5.29,4.25-1.95,1.83-4.83,2.74-5.74,1.82-.69-.69-.1-1.26,2.98-2.83,1.71-.88,2.61-1.68,3.03-2.7l.59-1.46-2.12,1.62c-2.92,2.23-3.64,2.16-3.24-.33.17-1.07.48-2.16.69-2.43.21-.27.51-1.19.67-2.05.16-.86,1.01-3.05,1.88-4.86.87-1.81,2.31-5.09,3.21-7.28,2-4.9,4.65-10.82,5.68-12.67.42-.76,1.57-3,2.55-4.96,2.32-4.65,7.84-12.41,11.21-15.76,2.34-2.33,3.48-2.18,4.54.59M343.15,113.4c1.7,5.36-8.72,19.87-17.28,24.09-4.71,2.32-5.24,2.05-3.53-1.74,4.04-8.93,9.02-15.44,15.69-20.52,4.01-3.06,4.66-3.29,5.12-1.84M99.83,118.1c-3.1,4.11-8.23,16.74-6.66,16.43.32-.06.5.2.41.58-.09.38-.34,1.94-.55,3.47-.21,1.53-.82,4.34-1.37,6.25-.55,1.91-1.15,4.3-1.34,5.32-.47,2.53-2.3,8.93-3.06,10.71-1.14,2.65-.03,4.48,5.03,8.3,4.34,3.28,7.82,1.8,11.45-4.87.4-.74,1.59-2.67,2.63-4.27,1.04-1.61,2.02-3.55,2.16-4.31.15-.76.13-1.1-.03-.74-.52,1.13-1.71,2.32-2.1,2.09-.37-.23-.29-.48,1.15-3.35.84-1.68.97-2.39.42-2.39-.19,0-.71.83-1.15,1.84-.46,1.07-1.36,2.13-2.15,2.53-.74.39-1.44.95-1.54,1.26-.32.95-1.29-.06-1.29-1.34,0-1.05-.34-.78-2.58,2.11-2.84,3.66-3.71,4.14-3.24,1.81.16-.83.48-2.54.7-3.82.22-1.27.61-2.83.86-3.47.25-.64.68-1.99.94-3.01.26-1.02.72-2.79,1.02-3.93.92-3.54,4.52-12.52,6.69-16.72,3.63-6.99,3.34-10.04-1.02-10.86-.84-.16-1.64-.47-1.78-.7-.58-.95-2.5-.37-3.6,1.09M563.81,118.57c1.3,3.01,1.82,7.84,1.25,11.65-.68,4.56-.67,8.51.03,11.12.49,1.82.12,3.74-.43,2.22-.4-1.13-1.02-.06-.75,1.29.21,1.04.1,1.37-.43,1.37-.39,0-.83.26-.97.58-.15.32-.79,1.41-1.43,2.43-.63,1.02-1.56,2.59-2.06,3.5-1.66,3.03-12.98,13.1-13.8,12.28-.15-.15-.04-.79.25-1.43.68-1.48.34-1.46-3.23.23-2.35,1.11-3.55,1.39-6.05,1.39-5.15,0-5.52-2.28-1.44-8.88.58-.94,2.32-4.13,3.85-7.08,1.54-2.95,3.65-6.76,4.7-8.47,1.05-1.7,2.62-4.33,3.48-5.84.87-1.51,1.93-3.2,2.36-3.76.43-.56,2.04-2.65,3.56-4.65,6.27-8.21,9.85-10.77,11.07-7.93M241.58,119.09c0,1.07-1.22,3.65-2.89,6.08-.87,1.27-2.29,3.77-3.15,5.55-.87,1.78-1.84,3.51-2.16,3.85-.32.34-.59.9-.59,1.25,0,.81-2.28,3.43-2.3,2.65-.01-.58,1.54-4.36,2.33-5.66.23-.38.97-1.73,1.64-3.01.67-1.27,1.4-2.38,1.62-2.47.22-.08.4-.46.4-.83,0-1.36,3.89-8.04,4.69-8.04.22,0,.4.29.4.64M84.27,120.65c0,1.29.12,1.56.46,1.04.59-.91.59-2.78,0-2.78-.25,0-.46.78-.46,1.74M220.3,120.97c0,.37.21.8.46.95.25.16.46-.14.46-.67s-.21-.95-.46-.95-.46.3-.46.67M227.7,124.96c0,1.03-.24,2.33-.54,2.89-.3.56-.7,1.74-.89,2.63-.19.89-.69,3.08-1.12,4.86-1.18,4.97-2.07,9.02-2.54,11.54-.51,2.69-1.62,4.15-2.32,3.04-.63-1-.53-2.41.25-3.44.37-.49.68-1.79.68-2.87s.19-2.45.42-3.03c.23-.58.77-2.83,1.2-5,.43-2.16,1.39-5.61,2.13-7.66.74-2.05,1.34-3.98,1.34-4.28s.31-.56.69-.56c.5,0,.69.52.69,1.88M130.48,126.51c-.73,2.01-1.34,2.14-1.34.29,0-.82.32-1.55.81-1.82,1.13-.63,1.22-.37.53,1.53M259.95,127.41c-.15,1.63-.82,4.16-1.49,5.67-.67,1.5-1.61,3.61-2.1,4.69-.88,1.95-1.82,2.61-1.82,1.27,0-.39.24-1.17.53-1.74,1.06-2.05,1.3-2.63,2.17-5.28.49-1.48,1-3.49,1.15-4.47.24-1.63,1-3.08,1.59-3.08.13,0,.12,1.32-.03,2.95M517.16,127.04c-.36.94-1.21.83-1.21-.17,0-1.2,1.11-2.25,1.31-1.25.09.41.04,1.05-.1,1.42M568.66,131.64c-.05,5.08-.95,5.56-2.14,1.16-.77-2.84-.74-3.1.38-4.22,1.33-1.33,1.79-.52,1.76,3.06M532.22,134.76c-.32,1.08-.79,2.69-1.05,3.58-.26.89-.77,3.16-1.12,5.04-.36,1.88-.93,3.86-1.28,4.4-.35.54-.88,2.02-1.18,3.29-.59,2.49-3.22,11.45-4.62,15.73-.25.76-.81,2.53-1.25,3.93-.44,1.4-1.05,2.86-1.37,3.24-.31.38-.78,1.32-1.05,2.08l-.49,1.39-.04-1.48c-.02-.81.17-1.6.43-1.76.25-.16.47-1.16.48-2.23s.75-4.33,1.66-7.26c.91-2.93,1.74-5.84,1.86-6.48.27-1.46,2.27-8,3.74-12.26.62-1.78,1.3-3.86,1.52-4.63.41-1.43,1.29-3.75,2.19-5.78.28-.64.64-1.76.8-2.5.22-1.01.42-1.21.82-.81.4.4.39,1.02-.05,2.5M119.89,133.49c-.34.63-.48,1.29-.31,1.46.17.17.31-.04.31-.46s.19-.77.41-.77.53-.31.68-.69c.44-1.15-.43-.78-1.09.46M129.62,139.03c-.31,1.79-1.08,5.09-1.72,7.34-.64,2.25-1.32,5.17-1.53,6.48-.69,4.52-1.47,7.94-1.89,8.38-.23.24-.43.8-.43,1.24,0,.85-.81,1.6-1.24,1.16-.14-.14-.01-1.67.28-3.4,1.59-9.32,2.03-11.68,2.58-13.79.33-1.27.87-3.56,1.19-5.09,1.45-6.78,3.88-8.83,2.76-2.32M201.32,134.55c0,.2-.25.62-.55.92-.82.82-1.3.68-1.3-.37,0-.62.31-.92.92-.92.51,0,.92.17.92.37M516.28,139.85c-.43,2.1-1.18,5.38-1.68,7.29-.49,1.91-1.25,5.45-1.68,7.87-.43,2.42-1.05,5.02-1.38,5.78-.33.76-.81,2.01-1.05,2.78-.73,2.24-1.3.08-.63-2.39.3-1.11.54-2.59.54-3.28,0-1.67,1.27-8.58,2.05-11.21.34-1.15.88-3.33,1.2-4.86.75-3.58,2.3-6.89,2.94-6.26.32.32.22,1.71-.31,4.29M200.4,139.96c0,1.12-.68,1.93-1.08,1.28-.12-.2-.11-.93.02-1.62.29-1.49,1.06-1.24,1.06.34M45.48,142.44c-.49.32-.46.46.15.7,1.34.51,3.1.34,2.9-.28-.23-.7-2.2-.97-3.05-.42M39.74,143.76c.58.11,1.41.11,1.85,0,.44-.12-.03-.21-1.05-.2-1.02,0-1.38.1-.8.21M469.82,149.67c-.46.63-1.09,1.15-1.41,1.16-.32,0-.58.17-.58.36,0,.77-7.89,6.22-8.6,5.94-.93-.36,4.83-5.16,8.15-6.79,1.26-.62,2.29-1.28,2.3-1.47,0-.19.23-.35.49-.35s.11.51-.35,1.14M221.22,152.26c0,.78-.25,1.87-.55,2.43-.3.56-.59,1.77-.65,2.7-.11,1.99-1.1,4.21-1.94,4.37-.32.06-.38,0-.11-.12.26-.13.47-1.34.47-2.68,0-1.51.24-2.65.63-2.98.35-.29.77-1.56.94-2.83.33-2.52,1.2-3.16,1.2-.89M134.54,153c-.49.49-.36,2.93.15,2.93.25,0,.46-.73.46-1.62,0-1.66-.08-1.84-.62-1.31M495.6,155.12c0,.84.09.91.46.35.58-.9.58-1.39,0-1.39-.25,0-.46.47-.46,1.04M93.98,156.3c0,.48-1,1.48-1.48,1.48-.6,0-.42-1.29.21-1.54.89-.36,1.27-.34,1.27.06M480.05,157.17c-.63.46-.92.49-1.05.11-.21-.65.88-1.4,1.49-1.02.24.15.05.56-.44.91M25.83,158.81c-.11.58-.2.21-.21-.8,0-1.02.09-1.49.2-1.05.12.44.12,1.27,0,1.85M24.84,164.61c-.49.48-.82-.29-.82-1.92,0-2.65.77-3.14.93-.59.08,1.24.03,2.37-.11,2.51M71.16,161.36c-.11.19-.03.76.17,1.27.33.81.38.76.4-.35.03-1.26-.18-1.6-.58-.92M442.3,167.78c-.18.87-5.48,3.85-5.47,3.08,0-.33.43-.71,3.23-2.89,1.41-1.1,2.43-1.19,2.23-.19M22.26,172.12c0,.48-.21,1-.46,1.16-.27.17-.46-.31-.46-1.16s.19-1.32.46-1.16c.25.16.46.68.46,1.16M20.74,179.18c-.11.57-.2.1-.2-1.04s.09-1.61.2-1.04c.11.57.11,1.51,0,2.08M211.1,193.03c-8.34,1.86-9.71,13.51-2.09,17.82,4.5,2.55,13.15,1.07,13.15-2.25,0-1.05.26-1.08-3.26.35-4.45,1.81-9.17.85-11.22-2.28-4.8-7.33,3.48-14.65,11.8-10.43,2.24,1.14,2.68,1.1,2.68-.23,0-2.57-5.82-4.14-11.05-2.97M249.44,193.11c-8.33,2.73-9.69,12.63-2.37,17.32,7.25,4.65,17.34,0,17.33-8,0-7.12-7.48-11.77-14.97-9.32M286.1,193.02c-.41.41-.57,3.12-.57,9.73v9.16h2.78v-3.64c0-4.58.05-4.62,6.04-4.78,4.48-.12,4.83-.2,4.83-1.06s-.35-.93-4.83-1.06c-5.62-.15-6.04-.39-6.04-3.34s.38-3.19,6.74-3.34c5.17-.12,5.52-.19,5.52-1.06,0-1.14-13.38-1.71-14.47-.61M322.87,192.78c-.18.18-.32,4.55-.32,9.73v9.41h1.16c1.13,0,1.16-.08,1.16-3.43,0-5.13-.28-4.9,5.83-4.9h5.27v-2.28l-5.44-.13-5.44-.13-.14-2.59c-.18-3.47.05-3.6,6.64-3.76,5.17-.12,5.52-.19,5.52-1.06,0-.95-13.36-1.75-14.26-.86M358.46,193.2c-.16.41-.29,4.77-.29,9.68v8.94l2.2.25c4.86.55,12.82.09,12.99-.77.22-1.12-.54-1.29-6.26-1.39-6.05-.11-6.61-.4-6.61-3.53s.33-3.27,6.34-3.27c4.92,0,5.23-.05,5.23-.92,0-.56-.32-.93-.81-.95-.44-.01-2.85-.06-5.34-.12-5.03-.1-5.4-.32-5.4-3.1s.26-2.98,6.79-3.24c5.53-.22,5.92-.29,5.92-1.16,0-1.29-14.26-1.71-14.75-.44M395.49,193.97c-.72,4.06-.34,17.49.5,17.84,2.23.92,14.23.37,14.38-.65.14-.95-.06-.99-5.67-1.18-6.7-.22-6.98-.38-6.93-3.68.05-3.02.33-3.16,6.33-3.17,4.66,0,4.97-.07,4.97-.93s-.31-.92-4.37-.92c-5.53,0-6.6-.38-7-2.53-.63-3.34.32-3.9,6.85-4.05,5.31-.12,5.67-.19,5.67-1.06s-.35-.93-7.23-1.05l-7.23-.13-.27,1.52M258.98,196.49c5.6,4.27,3.67,11.32-3.6,13.13-6.2,1.54-12.33-4.04-10.43-9.48,1.71-4.9,9.68-6.97,14.03-3.65M226.84,233.35c-.38.46-.52,2.26-.43,5.7l.13,5.02,3.66.14c4.05.15,5.78-.2,4.21-.85-.51-.21-2.1-.4-3.54-.41-2.71-.03-3.17-.38-3.17-2.39,0-1.06,1.65-1.8,3.99-1.8,1.02,0,1.5-.18,1.31-.49-.18-.28-.88-.36-1.67-.19-1.72.38-3.44-.68-3.75-2.31-.29-1.53-.03-1.67,3.96-2.09l3.32-.35-2.78-.07c-1.53-.04-3.21-.19-3.73-.33-.56-.15-1.2.03-1.52.42M272.12,233.2c-1.3.27-1.39.35-.45.4,2.57.13,3.29,1.22,3.22,4.85-.1,5.48.17,5.95.44.78l.26-4.85,1.84-.51,1.84-.51-1.84-.3c-2.12-.35-3.06-.32-5.31.15M249.55,233.92c-2.4,1.68.83,5.29,4.74,5.29,1.2,0,2.56,1.09,2.56,2.04,0,2.04-3.47,2.7-6.5,1.24-1.36-.66-1.83-.73-1.83-.28,0,1.92,5.58,2.56,7.99.92,3.03-2.05,2.03-4.34-2.21-5.04-2.86-.48-3.44-.72-3.93-1.65-.55-1.02-.15-2.32.72-2.32.34,0,.75-.21.9-.46.45-.73-1.3-.54-2.44.26M254.53,233.66c0,.25.53.46,1.18.46s1.06-.2.9-.46c-.16-.25-.69-.46-1.18-.46s-.9.21-.9.46M323.59,233.76c-.57.28-1.04.68-1.04.89,0,.57.82.48,1.01-.1.19-.55,4.28-.84,4.79-.33,1.06,1.06.2,2.84-2.78,5.72-3.89,3.76-3.8,4.36.64,4.36,1.77,0,3.35-.21,3.51-.46.16-.27-.27-.46-1.02-.47-3.54-.02-4.37-1.35-2.04-3.28,5.08-4.21,2.7-9.11-3.07-6.33M343.73,234.01c-2.31,2.65-2.02,8.91.42,8.91.34,0,.61.2.61.45,0,.71,2.15,1.07,3.09.53.71-.41.58-.49-.81-.5-2.11-.02-3.66-1.59-3.98-4.03-.26-1.9.81-5.24,1.68-5.24.27,0,.49-.21.49-.46,0-.71-.71-.55-1.49.35M347.76,233.66c.16.25.55.46.88.46,1.14,0,1.83,4.6,1.03,6.83-.81,2.24-.21,2.66.86.6,1.69-3.26.15-8.35-2.53-8.35-.29,0-.39.21-.24.46M364.44,233.63c-.17.27.01.49.4.49,1.84,0,2.43,6.63.74,8.33-.51.51-1.13.92-1.39.92s-.46.21-.46.46,1.23.46,2.78.46c2.96,0,3.31-.3,1.87-1.6-.75-.68-.93-1.54-1.04-5.05-.13-4.19-.14-4.22-1.36-4.37-.68-.08-1.36.08-1.53.35M382.32,234.14c-2.33,2.17,0,6.13,3.2,5.44.78-.17,1.14,1.87.45,2.56-.61.61-.66,1.7-.09,1.7.93,0,3.85-6.82,3.54-8.25-.38-1.74-1.27-2.51-2.65-2.3-1.02.15-1.01.19.32.85,2.83,1.41.72,5.1-2.52,4.39-2.36-.52-2.98-4.4-.71-4.4.37,0,.68-.21.68-.46,0-.77-1.15-.52-2.23.48M292.47,243.38c0,.25.43.46.95.46s.82-.21.67-.46c-.16-.25-.59-.46-.95-.46s-.67.21-.67.46"/>
      <path id="path2" class="cls-3" d="M297.91,1.66c-.19.19-4.1.42-8.7.51-5.56.11-9.32.42-11.22.9-1.57.4-4.11.91-5.64,1.14-5.29.79-7.41,1.22-9.49,1.94-1.14.4-3.54,1.18-5.32,1.74-1.78.56-3.65,1.27-4.16,1.58-.51.31-1.86.71-3.01.9-7,1.14-7.72,1.37-14.66,4.7-4.03,1.93-4.93,2.19-8.01,2.28-4.15.12-4.62.29-5.65,2.09-.9,1.57-1.89,1.72-4.39.68-2.04-.85-4.11-.17-4.52,1.5-.16.65-.61,1.06-1.18,1.06-.74,0-.92.31-.92,1.62,0,1.69-1.29,3.47-2.52,3.47-.37,0-1.09.94-1.59,2.08-.54,1.23-1.4,2.3-2.11,2.62-1.18.54-2.2,2.97-2.04,4.85.27,2.99-1.59,5.46-9.34,12.44-1.41,1.27-3.17,3.14-3.92,4.16-.74,1.02-1.99,2.48-2.76,3.24-.77.77-2.62,2.72-4.1,4.34-2.67,2.92-2.72,2.95-4.69,2.68-1.89-.26-2.07-.18-3.55,1.58-.86,1.02-2.57,3.01-3.79,4.42s-2.61,3.43-3.07,4.49c-1.28,2.93-4.02,7.25-5.54,8.74-.93.91-1.53,2.12-1.88,3.8-.28,1.36-.92,2.83-1.41,3.28-1.08.97-1.16,2.19-.21,2.99.94.78.86,2.6-.23,5.01-.91,2-1.38,7.75-.73,8.82.2.33.93.11,2.13-.65,1-.63,1.9-1.15,2-1.15.82,0,.68,6.1-.19,8.07-.89,2.02-4.61,6.27-5.48,6.27-.78,0-4.2,5.73-4.2,7.04,0,.78-.19,1.22-.46,1.06-.71-.44-1.47,1.98-.94,2.98.29.54.28,1.86-.02,3.73-.53,3.29-.38,3.77.7,2.23,2.54-3.61,4.96-7.29,5.63-8.55.43-.8,1.24-1.71,1.82-2.02.57-.31,1.27-1.06,1.54-1.66.28-.61.71-1.11.97-1.11s.81-.68,1.23-1.5c1.29-2.53,3.45-4.97,4.38-4.97.59,0,.89-.32.89-.97,0-.53.29-1.52.65-2.2.36-.68,1.15-2.27,1.76-3.54.82-1.71,1.41-2.35,2.24-2.47,1.1-.15,4.14-3.04,4.14-3.93,0-.24-.46-2.29-1.02-4.55-1.17-4.72-1.21-4.47,2.08-13.26,1.11-2.96,3.95-7.47,6.37-10.1.97-1.06,2.22-2.83,2.78-3.93,2.25-4.45,6.76-11.71,7.99-12.84.72-.66,3.22-3.12,5.57-5.48,2.35-2.35,5.3-4.93,6.56-5.73s3.78-2.57,5.6-3.94c1.82-1.37,3.43-2.48,3.58-2.48.61,0,5.77-3.5,8.16-5.53,3.88-3.3,7.92-5.88,10.57-6.75,1.32-.43,2.51-.97,2.65-1.19s.64-.41,1.11-.41,1.45-.49,2.17-1.09c2.28-1.9,5.14-3.11,7.1-3,1.84.11,2.16-.08,5.4-3.17,1.8-1.72,4.98-2.83,9.03-3.15,7.77-.61,12.91-1.84,19.29-4.59,4.86-2.1,17.99-2.91,24.58-1.53,1.9.4,6.27.84,9.7.97,5.61.22,12.3,1.22,13.61,2.03.27.17,1.43.46,2.58.66,9.6,1.61,12.57,2.35,18.28,4.52.51.19,2.7,1.02,4.86,1.83,5.39,2.02,7.54,3.04,11.44,5.41,1.84,1.12,3.53,2.03,3.75,2.03s2.11,1.14,4.2,2.54c2.09,1.4,4,2.54,4.24,2.54s2.3,1.74,4.58,3.88c2.28,2.13,6.23,5.27,8.78,6.97,2.55,1.7,5.22,3.85,5.92,4.78s2.22,2.63,3.37,3.79c1.16,1.16,2.85,3.15,3.78,4.42.92,1.27,3.43,3.98,5.58,6.02,4.34,4.12,7.27,8.63,9.61,14.76.77,2.02,1.95,4.21,2.61,4.87,1.19,1.18,3.85,6.22,3.85,7.3,0,.3.29.72.63.92s1.07,1.2,1.59,2.22l.96,1.85.79-1.97c.44-1.08.94-1.97,1.13-1.97s1.17-1.09,2.2-2.43c1.02-1.34,3.34-4.07,5.15-6.08,2.13-2.37,3.15-3.83,2.88-4.16-.22-.28-.56-1.55-.74-2.83-.18-1.27-.51-2.53-.73-2.79-.22-.26-.82-2.44-1.34-4.83-.52-2.4-1.16-4.56-1.41-4.82-.25-.25-.46-.74-.46-1.07,0-1.39-5.48-8.35-7.37-9.36-.53-.28-.96-.78-.96-1.12s-.53-.85-1.18-1.14c-1.67-.76-1.8-.68-.96.6.41.63.75,1.88.75,2.79,0,1.27.24,1.75,1.04,2.09,4.43,1.87,9.19,12.18,6.61,14.33-.82.68-2.57.21-2.57-.69,0-.35-.41-.87-.91-1.14-.5-.27-1.08-1.1-1.27-1.84-.2-.76-1.05-1.81-1.94-2.42-1.29-.88-1.7-1.57-2.25-3.85-.69-2.83-1.64-4.4-2.68-4.4-.32,0-.96-.59-1.43-1.32-3.97-6.16-3.66-5.85-8.14-8.06-5.52-2.73-7.62-3.17-7.83-1.65-.29,2.03-3.72,1.81-4.48-.28-.39-1.07-.89-1.64-1.45-1.64-.52,0-2.35-1.81-4.68-4.62-2.1-2.54-4.18-4.73-4.61-4.87-.44-.14-2.05-1.78-3.59-3.66-1.54-1.87-3.59-3.99-4.57-4.7-.97-.71-2-1.57-2.28-1.9-.61-.72-3.79-2.92-4.22-2.92-.16,0-.75-.42-1.3-.94-.55-.52-1.81-1.07-2.81-1.22-.99-.15-2.98-.99-4.42-1.87-1.84-1.12-3.49-1.71-5.55-1.97-2.95-.38-6.98-1.9-8.15-3.08-.35-.34-.78-.63-.97-.63s-1.16-.75-2.16-1.67c-3.18-2.92-5.44-3.75-9.93-3.67-2.16.04-4.18-.11-4.48-.34-.82-.61-3.26-.57-4.02.07-.46.38-.77.4-.97.07-.17-.27-1.83-.49-3.72-.49s-3.9-.19-4.48-.42c-1.88-.74-5.97-1.36-14.02-2.13-4.33-.42-8.59-.86-9.49-.99-.89-.13-1.77-.08-1.96.11M438.22,75.45c0,.82-.19,1.3-.46,1.13-.25-.16-.46-.79-.46-1.42s.21-1.13.46-1.13.46.64.46,1.42M442.84,93.32c-1.57,1.76-3.23,4.17-3.23,4.71,0,.24-1.35,2.06-3,4.04-2.6,3.13-2.91,3.7-2.37,4.33.35.4,1.42,2.28,2.38,4.19.96,1.91,1.98,3.76,2.25,4.12.53.68,1.57,8.48,1.63,12.1.02,1.16.21,2.3.43,2.54.61.67,1.57,8.72,1.58,13.16,0,3.03.19,4.19.84,5.09.7.97.85,2.3.96,8.15l.13,6.99,1.17-.8c.64-.44,1.77-1.19,2.5-1.67,10.28-6.77,10.36-6.87,9.97-11.36-.35-3.98-2.38-10.5-4.07-13.06-.87-1.32-1.15-2.28-1.05-3.59.36-4.45.14-9.22-.56-12.19-1.41-5.97-1.63-6.92-2.59-10.87-.52-2.16-1.9-5.94-3.06-8.39-1.16-2.45-2.25-5.43-2.43-6.63l-.32-2.17-1.17,1.31M161.15,135.55c-1.1,1.75-2.41,3.55-2.89,3.99-.49.44-.89,1.04-.89,1.32s-1.09,1.92-2.43,3.63c-2.14,2.74-4.93,6.81-5.35,7.81-.08.19.57.65,1.45,1.02,2.61,1.09,2.62,1.2,1.28,19.4-.56,7.61-.79,6.55,2.91,13.33,1.73,3.16,4.12,4.91,6.14,4.5,1.6-.33.75-6.81-1.28-9.7-.84-1.19-1.35-5.87-2.03-18.65-.1-1.77-.29-3.7-.44-4.28-.49-1.96.68-9.5,1.88-12.1.63-1.37,1.06-2.57.95-2.69s.3-1.57.9-3.25c.61-1.68,1.11-3.6,1.11-4.28s.23-1.46.51-1.74c.28-.28.44-.73.35-1-.09-.27-1.07.95-2.17,2.7M458.74,162.91c-.97.28-1.55.8-1.74,1.55-.15.62-.75,1.27-1.32,1.45-.57.18-1.72.92-2.56,1.65-.84.73-1.71,1.33-1.95,1.33s-1.07.63-1.85,1.39c-.78.76-1.85,1.39-2.38,1.39s-1.68.63-2.54,1.39c-.87.76-1.87,1.39-2.22,1.39-.72,0-.91,1.12-1.89,11.34-.81,8.38-1.08,9.45-4.82,18.97-.8,2.04-1.78,4.64-2.18,5.78-.95,2.71-2.56,5.67-4.69,8.62-4.03,5.59-4.61,6.47-4.96,7.57-.2.64-.85,1.93-1.45,2.88-.6.95-1.09,1.86-1.09,2.02s-1.01,1.58-2.24,3.15c-2.13,2.71-3.08,4.29-5.01,8.29-1.06,2.2-5.25,7.36-8.02,9.87-7.98,7.23-14.85,12.68-19.73,15.66-.83.51-2.93,2.19-4.66,3.74-1.73,1.55-4.1,3.35-5.27,4-1.17.65-3.93,2.35-6.15,3.78-2.21,1.43-4.13,2.6-4.27,2.6-.45,0-4.57,1.88-8.05,3.67-1.91.98-4.93,2.13-6.71,2.55-3.69.87-6.32,1.56-8.33,2.2-.76.24-3.98.55-7.15.68-3.17.13-6.19.47-6.71.75-1.21.66-5.71,1.43-15.53,2.67-4.59.58-7.6.1-9.87-1.58-2-1.48-2.98-1.76-4.09-1.16-1.19.64-3.92.66-4.67.03-.31-.26-2.44-.57-4.73-.7-4.04-.21-8.95-.89-12.26-1.69-.89-.21-3.41-.62-5.61-.9-2.19-.28-4.62-.82-5.4-1.21-1.44-.72-8.53-2-10.87-1.97-.71.01-1.71-.36-2.22-.82-1.01-.92-2.42-1.49-8.03-3.28-2.02-.64-4.41-1.57-5.31-2.05-.91-.49-2.15-.88-2.77-.88s-2.56-.83-4.33-1.85c-1.76-1.02-3.39-1.85-3.6-1.85s-1.08-.63-1.91-1.39c-.84-.76-1.72-1.39-1.95-1.39-.79,0-5.12-2.93-6.76-4.59-.89-.89-2.45-2.06-3.47-2.6-1.39-.73-1.89-1.3-2-2.29-.19-1.62-1.21-3.25-3.26-5.21-1.44-1.38-1.54-1.66-1.26-3.47,1.44-9.41-.41-12.15-8.69-12.86-3.64-.31-5.35-.72-5.83-1.39-.13-.18-1.35-.92-2.72-1.65-2.62-1.4-4.69-4.21-4.69-6.36,0-1.99-3.89-3.71-4.86-2.14-.16.25-.91.46-1.68.46-1.67,0-3.18.74-3.18,1.55,0,.33-.5,1.03-1.11,1.56-1.01.88-1.07,1.15-.69,3.19.51,2.75.65,2.87,3,2.62l1.89-.2-.85-1.68c-1.2-2.36-1.12-3.33.3-3.33.64,0,1.16-.19,1.16-.43,0-1.82,2.94-.85,3.87,1.27,2.11,4.84,1.97,6.84-.53,7.32l-1.72.33,1.27.52c.98.4,1.15.65.73,1.07-.42.42-.4.82.08,1.71.96,1.8-1,4.76-2.04,3.08-.14-.22-.88-.53-1.65-.68-1.77-.36-1.78-1.18,0-3.62,1.61-2.23,1.15-2.97-2.2-3.5-.95-.15-1.86-.47-2.02-.71-.3-.45-2.72.87-2.72,1.48,0,.18.52.82,1.16,1.41.64.6,1.16,1.6,1.16,2.22,0,1.39,3.2,4.72,4.52,4.72,1.12,0,2.52,1.98,2.13,3.01-.85,2.23,3.55,8.21,8.36,11.34,1.93,1.26,3.51,2.48,3.51,2.71,0,.79,4.62,5.15,5.46,5.15.46,0,1.24.3,1.74.68.49.37,1.56.69,2.37.69,1.55.02,2.45.63,7.55,5.2,1.65,1.48,3.53,3.16,4.16,3.73,3.94,3.53,7.57,6.19,10.24,7.54,1.69.85,3.56,2.21,4.16,3.01,1.9,2.54,4.25,4.59,5.24,4.59.53,0,1.44.33,2.02.74.77.54,1.58.66,2.99.44,6.27-.96,6.73-.92,9.31.86,1.33.92,2.76,1.66,3.18,1.66s1.47.63,2.34,1.39c.87.76,1.93,1.39,2.36,1.39,1.06,0,5.22,1.81,7.14,3.11.86.58,2.05,1.06,2.63,1.06s2.51.52,4.27,1.16c1.89.68,4.23,1.16,5.7,1.17,1.37,0,3.32.21,4.34.46,1.02.24,4.04.66,6.71.92,9.12.89,10.58,1.17,12.15,2.34,1,.75,2.35,1.2,4.04,1.36,2.38.22,2.55.32,2.69,1.54.23,2.04,1.18,1.97,5.19-.38,3.12-1.83,3.99-2.14,5.34-1.93,6.28,1.02,13.07-2.5,12.6-6.53-.12-1.02.1-1.3,1.24-1.64,4.84-1.46,15.37-6.28,17.48-8,.71-.58,2.5-1.5,3.99-2.04,1.7-.62,3.33-1.64,4.37-2.74,1.71-1.81,1.82-2.8.17-1.64-.67.47-1.18.52-1.79.2-1.81-.97-.26-2.98,1.87-2.42.73.19,1.42-.1,2.38-1.03,1.63-1.56,3.28-.74,2.87,1.42-.25,1.31-.15,1.36,1.35.57.73-.38,1.04-.89.92-1.49-.15-.79-.08-.83.56-.29.85.71,2.14.38,2.14-.54,0-.99,2.63-3.31,2.9-2.57.17.46.39.4.9-.25.56-.73.83-.78,1.71-.31.91.49,1.07.44,1.3-.44.22-.86.49-.96,1.82-.71,1.32.25,1.55.16,1.55-.58,0-1.2,1.25-2.2,3.62-2.91,1.72-.51,1.96-.73,1.74-1.62-.17-.68-.01-1.12.47-1.31,1.14-.44,1.58-.33,1.58.39,0,1.14.87,1.28,2.78.43,1.45-.64,1.85-1.07,1.85-2,.02-1.96,1.64-3.44,6.47-5.9,2.51-1.28,2.31-1.27,2.31-.14,0,.51.19.93.41.93.59,0,.97-1.21.97-3.05,0-1.67.09-1.72,2.78-1.6,1.28.05,1.72-.15,2.08-.98.26-.6,1.11-1.24,1.97-1.48.83-.23,1.5-.61,1.5-.84,0-.88,2.32-2.69,3.45-2.69s1.18-.15,1.18-2.15.04-2.12.85-1.39c1.26,1.14,1.91.97,5.43-1.39,2.86-1.91,10.39-8.24,10.75-9.02.08-.17.6-.84,1.16-1.49,2.16-2.52,6.77-15,7.75-21.01.46-2.8,1.44-4.23,4.31-6.28,2.82-2.02,7.7-8.54,7.7-10.31,0-.43.56-1.73,1.25-2.9,1.59-2.69,1.86-13.47.46-18.16-1.45-4.85-.88-8.54,1.9-12.37.81-1.12,1.48-2.28,1.48-2.58s.52-1.04,1.16-1.64c1.28-1.2,2.23-3.9,2.31-6.59.03-.95.04-1.72.03-1.69-.02.02-.68.23-1.48.46M204.37,169.3c-.48.77.97,2.05,1.77,1.55.32-.2.23-.38-.27-.48-.43-.09-.85-.51-.94-.94-.13-.64-.23-.67-.56-.13M162.12,208.7c-6.82,1.46-10.26,11-3.86,10.72,1.41-.06,3.4.26,4.93.8,1.41.49,2.86.79,3.22.65.41-.16.97.29,1.48,1.18.98,1.71,1.11,1.74,2.67.39,1.78-1.53,2.98-5.34,2.23-7.09-.32-.74-.59-1.87-.61-2.51-.04-1.38-1.01-2.78-1.92-2.78-.36,0-1.07-.28-1.57-.63-1.13-.78-4.57-1.16-6.58-.74M136.6,223.99c-3.52,3.71-3.25,5.62.75,5.41l2.67-.14-.17-2.54c-.09-1.4-.43-3.05-.74-3.66l-.58-1.11-1.93,2.04M148.37,229.15c-.19.45-.19,1.17,0,1.62.34.77.36.77.55,0,.33-1.36-.1-2.64-.55-1.62M146.46,233.42c-.78.59-.8.68-.11.69.43,0,.92-.21,1.09-.48.5-.82-.03-.93-.98-.21M131.61,247.89c-.81,1.94-1.34,2.41-2.73,2.42-1.94.01-3.16,2-2.28,3.72,1.47,2.84,6.55.32,7.65-3.79.86-3.21-1.44-5.24-2.65-2.34M193,256.56c.24.64.76,1.16,1.14,1.16s.7.26.69.58c-.03.99-1.22,2.81-1.53,2.32-.16-.25-.78-.37-1.39-.25-1.27.24-1.88-1.05-1.13-2.39.24-.44.34-1.2.21-1.69-.36-1.39,1.46-1.15,1.99.27M205.27,265.07c-.17.53-.5.97-.74.97s-.43.53-.43,1.18v1.18l-1.5-1.43c-.83-.79-2.08-1.55-2.78-1.7-.7-.15-1.27-.46-1.27-.69,0-.73,1.48-1.02,2.37-.46,1.25.78,3.04.65,3.38-.24.44-1.14,1.36-.02.97,1.19M213.34,271.58c.37.24.53.58.35.76-.18.18.1,1.02.63,1.88,1.04,1.68,1.11,1.55-1.3,2.27-.84.25-1.98-1.65-1.98-3.29,0-2.04.77-2.58,2.3-1.61M386.4,276.46c0,.38-.21.69-.46.69s-.46-.31-.46-.69.21-.69.46-.69.46.31.46.69M230.47,352.02c0,.2-.82,1.2-1.81,2.2-4.05,4.09-4.71,5.23-4.39,7.62.19,1.4.11,2.3-.22,2.5-.81.5-.6,1.27.29,1.1.61-.12.77-.52.66-1.61-.08-.8.08-1.59.35-1.75.27-.17.49-.68.49-1.13,0-.91,1.63-3.28,4.28-6.22,1.83-2.03,2.19-3.09,1.04-3.09-.38,0-.69.17-.69.37M248.52,353.77c0,.15.42.8.92,1.45.51.65.92,1.48.92,1.86,0,1.1,2.78,4.28,3.74,4.28,1.54,0,.71-2.23-1.09-2.91-.45-.17-.93-.68-1.07-1.13-.92-2.97-3.43-5.57-3.43-3.55M249.53,379.75c.09.79.47,1.33.99,1.43.79.15.8.08.1-1.27-.91-1.76-1.28-1.82-1.09-.16"/>
      <path id="path3" class="cls-2" d="M95.34,71.62c-.89.45-2.96,1.93-4.61,3.28-1.65,1.35-3.36,2.75-3.8,3.1-1.62,1.31-.11,3.4,1.98,2.74,1.62-.51,1.19,1.02-3.23,11.57-2.65,6.33-4.69,11.45-5.16,12.95-.32,1.02-1.25,3.62-2.08,5.78-.83,2.16-1.75,4.87-2.05,6.02-.3,1.15-.73,2.5-.95,3.01-.79,1.81-4.59,13.73-4.59,14.39,0,.55-.58,1.86-1.31,2.96-.08.13-1.85.36-3.93.53-5.43.43-12.04,1.6-20.67,3.67-6.93,1.66-6.48,1.66-6.48.01,0-.8.2-1.81.44-2.25.66-1.21,2.89-7.09,3.29-8.67.63-2.48,5.06-14.68,7.24-19.89,5.75-13.77,9.61-21.29,13.29-25.91,4.15-5.21,2.47-10.13-3.45-10.07-3.34.03-3.75.39-7.49,6.47-3.46,5.62-6.39,11.88-11.54,24.66-.77,1.91-1.58,3.89-1.8,4.4-1.11,2.53-4.82,12.92-9.39,26.31l-3.3,9.65-1.85.95c-2.84,1.46-3.42,1.72-3.92,1.72-.56,0-11.6,5.35-15.75,7.63-4.4,2.42-5.16,3.94-3.2,6.42,1.46,1.85,3.41,1.63,7.63-.86,1.94-1.14,3.61-2.08,3.72-2.08s1.39-.79,2.85-1.77c4.38-2.91,8.94-4.33,7.76-2.42-.15.25-.69,2.18-1.2,4.28-1,4.16-1.54,6.27-2.5,9.85-3.82,14.2-2.51,24.1,3.8,28.76,4,2.95,8.4,1.69,5.71-1.63-2.72-3.35-3.02-9.27-.93-18.38.52-2.27,1.06-5.06,1.19-6.21.13-1.14.52-2.71.85-3.47.79-1.82,1.44-3.91,2.58-8.37.51-2.01,1.11-4.07,1.33-4.58.22-.51.64-1.8.92-2.87.81-2.99,1.57-3.48,7.44-4.8.89-.2,2.56-.59,3.7-.87,1.15-.28,3.02-.7,4.16-.93,1.15-.23,3.75-.76,5.78-1.17,2.04-.41,4.67-1.05,5.85-1.41,1.18-.37,2.98-.67,4-.67h1.85l-.4,1.74c-.22.95-1.15,4.03-2.06,6.82-1.59,4.87-2.08,6.87-2.97,12.03-.22,1.27-.63,2.9-.9,3.62-.28.72-.51,3.22-.51,5.56v4.25l2.58,2.88c3.18,3.55,5.65,4.58,7.22,3.02,1.12-1.12,1.33-7.68.31-9.32-.45-.72-.4-1.37.22-3.3.43-1.33.78-2.88.78-3.46s.31-1.65.69-2.38c.38-.73.69-1.73.69-2.22,0-.84.17-1.46,1.64-6.05.33-1.02.71-2.37.85-3.01.14-.64.99-2.38,1.89-3.87,1.43-2.36,1.64-3.1,1.64-5.7,0-1.64.24-3.44.54-3.99.3-.56.7-1.74.88-2.63.19-.89.86-3.08,1.49-4.86.63-1.78,1.47-4.28,1.87-5.55.39-1.27,1.53-4.5,2.52-7.17.99-2.67,2.55-7.04,3.45-9.72,2.79-8.22,3.72-10.78,4.77-13.19.56-1.27,1.7-3.98,2.55-6.02,1.78-4.3,3.92-8.4,5.07-9.72,4.81-5.5-.55-12.86-6.98-9.59M100.31,72.62c3.89,1.77,4.16,4.28.92,8.52-.92,1.2-2.01,2.96-2.42,3.9-.41.94-1.24,2.77-1.84,4.07-.6,1.29-1.52,3.48-2.05,4.86-.53,1.38-1.15,2.92-1.38,3.43-.23.51-1.38,3.53-2.57,6.71s-2.35,6.15-2.58,6.59c-.23.44-.43,1.24-.43,1.76,0,1.24-1.84,5.53-2.37,5.53-.22,0-.4-.42-.4-.93s-.21-.92-.46-.92-.46.39-.46.87-.29,1.11-.64,1.41c-.36.29-.78,1.26-.95,2.14-.16.88-.46,1.6-.65,1.6s-.62,1.09-.94,2.43c-.32,1.34-1.11,3.64-1.74,5.11-.81,1.87-1.02,2.86-.69,3.25.33.39.2.91-.42,1.71-.49.63-.89,1.5-.89,1.93,0,.43-.22.91-.47,1.07-.86.53-.49,2.31.58,2.79,1.53.68,1.32,5.65-.35,8.17-.63.96-1.15,1.94-1.15,2.17s-.39.33-.87.2c-1.14-.3-1.62.51-.74,1.24,1.12.93.83,1.8-.58,1.7-1.22-.08-1.27,0-1.15,1.88.09,1.4-.05,1.97-.5,1.97-.84,0-1.59,1.64-1.86,4.09-.13,1.14-.65,2.46-1.19,3.04-1.09,1.16-1.22,2.14-.41,2.96.8.8,1.65.68,1.94-.25.14-.44.12-.18-.04.58-.42,2.04-.39,7.08.05,9.59.99,5.63-2.1,6.73-6.35,2.27-3.11-3.26-3.4-4.2-2.67-8.79.95-6,1.28-7.52,2.78-13.02.8-2.93,1.65-6.05,1.89-6.94.23-.89.93-2.99,1.54-4.66,1.51-4.12.68-5.45-2.57-4.17-.58.23-3.04.77-5.46,1.2-4.76.84-15.09,3.18-17.38,3.93-.78.26-1.8.47-2.26.47-3.4,0-6.26,2.37-6.27,5.18,0,.68-.21,1.37-.46,1.53-.25.16-.46.69-.46,1.18,0,1.08-1.3,1.2-1.7.16-.23-.59-.36-.61-.67-.11-.62.98-.47,2.79.31,3.65,1.02,1.12.44,3.35-.77,2.97-.67-.21-.87-.05-.87.7,0,.54-.31,1.58-.69,2.32-.38.74-.68,2.34-.67,3.56.02,3.01-.24,5.28-1.09,9.4-1.81,8.73-1.55,15.74.68,18.28,2.14,2.44.69,3.38-2.71,1.77-5.96-2.83-7.6-9.55-5.45-22.36.4-2.42.89-5.33,1.08-6.48s.53-2.39.76-2.76c.23-.37.56-1.52.73-2.54.17-1.03.76-3.48,1.3-5.45,2.02-7.3.89-7.24-12.16.66-6.27,3.79-7.87,4.26-9.27,2.71-1.25-1.38-.6-3.02,1.72-4.34,4.41-2.51,10.52-5.55,14.22-7.09,8.07-3.35,8.54-3.64,9.58-6.05,1.19-2.77,1.99-5.28,1.99-6.27,0-.42.3-1.45.67-2.28.66-1.51,3.02-7.94,5.81-15.86,3.26-9.27,3.83-10.76,5.13-13.52.74-1.59,1.35-3.1,1.35-3.36s.2-.84.44-1.28c.24-.44.74-1.53,1.11-2.42.37-.89,1.19-2.77,1.82-4.17.63-1.4,1.63-3.69,2.23-5.09.59-1.4,1.63-3.48,2.3-4.63.67-1.14,1.92-3.28,2.77-4.74,3.54-6.07,7.17-7.69,9.92-4.42,1.85,2.2,1.42,4.05-2.23,9.52-1.65,2.47-4.29,7.2-5.87,10.51s-3.13,6.54-3.46,7.17c-.58,1.12-3.11,7.32-5.48,13.42-.64,1.65-1.31,3.63-1.5,4.4-.18.76-.48,1.6-.67,1.85-.19.25-.45.98-.59,1.62-.4,1.84-3.11,8.98-3.6,9.46-.24.24-.44.74-.44,1.12s-.31,1.01-.69,1.41c-3.37,3.57-3.68,5.25-1.06,5.77,1.13.23,1.34.42.91.84-1.65,1.65,1.41,2.48,4.01,1.1.68-.36,3.1-.9,5.39-1.19,2.29-.29,5.07-.74,6.18-.98,1.11-.25,3.87-.62,6.14-.83,2.73-.25,4.4-.64,4.96-1.14.46-.42,1.26-.76,1.79-.76,2.47,0,4.13-2.61,6.64-10.41,1.31-4.07,3.11-9.38,4.01-11.8.9-2.42,1.8-5.02,2-5.78.97-3.62,1.57-4.63,2.63-4.48,1.22.17,1.32-.23.33-1.32-.71-.78.44-5.31,1.69-6.67.22-.24.4-.89.4-1.45,0-.63.36-1.1.95-1.26.53-.14.92-.53.87-.86-.17-1.24.04-1.71.84-1.86.65-.13.81-.65.82-2.69,0-1.4.35-3.27.76-4.16,3.61-7.88,3.64-8.14.97-7.97-2.33.15-2.64-.68-.69-1.84.7-.42,1.91-1.38,2.68-2.14,3.29-3.24,6.07-4.14,8.85-2.88M238.05,73.92c-2.36,2.16-3.69,4.34-5.47,8.91-.94,2.42-2.21,5.48-2.82,6.81-.61,1.33-1.24,2.94-1.4,3.59-.16.65-.48,1.29-.71,1.43-.23.14-.41.77-.41,1.39s-.21,1.5-.46,1.94c-.81,1.41-4.63,13.17-4.63,14.27,0,.58-.19,1.17-.43,1.32-.24.15-.57.94-.74,1.76-.17.82-.74,2.75-1.26,4.27-.94,2.78-2.06,7.12-2.5,9.72-.13.76-.53,2.04-.89,2.85-.36.8-.66,2.01-.66,2.69s-.22,1.65-.49,2.16c-.51.94-1.15,3.9-1.74,8.04-.18,1.27-.5,2.58-.71,2.92-.21.33-.55,1.69-.76,3.01-.21,1.32-.6,3.24-.87,4.25-.27,1.02-.49,2.85-.5,4.06-.01,2.55-1.01,3.4-2.13,1.81-.37-.53-1.24-1.02-1.93-1.1-2.12-.24-2.64-12.09-.91-20.74.38-1.91.93-5.34,1.22-7.63.29-2.29.83-5.73,1.21-7.64.37-1.91.67-4.07.67-4.79s.33-2.45.74-3.85c2.21-7.6-.64-13.56-6.49-13.56-1.57,0-7.21,3.61-7.21,4.61,0,.25-.63,1.16-1.39,2.03s-1.39,1.81-1.39,2.08-.63,1.21-1.39,2.08c-.76.87-1.39,1.81-1.39,2.08s-.63,1.14-1.39,1.92c-.77.78-1.39,1.92-1.39,2.54s-.52,1.68-1.16,2.36-1.16,1.64-1.16,2.13-.44,1.34-.97,1.9c-.53.56-1.5,2.06-2.14,3.34-.65,1.27-1.34,2.42-1.54,2.55-.2.13-1.37,2.21-2.6,4.63l-2.24,4.39-.14-1.94c-.08-1.07.18-2.9.58-4.06,1.31-3.85.94-13.37-.59-15.41-1.27-1.69-7.94-3.91-7.94-2.64,0,.39.42.69.97.69s1.52.3,2.2.66c.68.37,1.8.78,2.5.93,1.89.4,2.77,2.83,2.84,7.89.05,3.97-.18,5.59-1.86,12.89-.67,2.9-.67,3.23.01,3.92.64.65.74.65.74.04,0-.39.26-.96.58-1.28.63-.63,3.76-6.07,4.61-8.02.47-1.08.61-1.15,1.08-.5.31.43.86.62,1.3.44.95-.37,1-1.25.07-1.25-.38,0-.69-.34-.69-.75,0-.51.28-.67.9-.51,1.1.29,2.81-.83,2.81-1.84,0-.41.49-1.38,1.09-2.17.6-.79,1.75-2.76,2.55-4.39,1.54-3.11,3.73-6.3,6.69-9.71.98-1.13,1.96-2.49,2.19-3.02.23-.53.76-1.44,1.17-2.01.73-1.01.72-1.05-.71-1.33-1.75-.35-1.26-1.13,2.17-3.45,2.42-1.63,2.26-1.63,4.86-.18,3.43,1.92,4.08,4.16,3.06,10.46-.22,1.36-.73,4.56-1.13,7.11-.4,2.54-.91,5.67-1.14,6.94-.23,1.27-.54,3.46-.71,4.86-.16,1.4-.62,3.79-1.02,5.32-.78,2.99-1.09,20.27-.4,22.35.29.89.57,1.02,1.67.78,2.82-.62,3.52,3.07.99,5.2-1.19,1-1.2,1.04-.22,1.04.56,0,1.34-.46,1.74-1.03.67-.96.72-.69.72,3.89,0,2.71.16,4.99.35,5.08.19.09.95.88,1.68,1.77,3.99,4.82,9.25,6.25,10.2,2.78.18-.64.49-1.57.71-2.08.21-.51.65-1.92.96-3.13.71-2.74.46-2.61,5.4-2.84,7.03-.33,9.57-2.08,21.21-14.63,4.6-4.95,11.77-15.41,11.77-17.16,0-.45.21-.94.46-1.1.25-.16.46-.79.46-1.41s.51-2.12,1.12-3.33c3.75-7.34,3.88-15.81.33-20.99-2.42-3.52-8.37-7.55-10.03-6.79-.87.4-1.29.39-1.7-.02-3.3-3.3-12.83,7.32-20.5,22.82l-2.06,4.16v-1.94c0-1.07.17-2.05.4-2.19.23-.14.52-.93.64-1.76.13-.83.59-2.65,1.02-4.05.43-1.4,1.07-3.69,1.41-5.09.99-4.09,1.66-6.22,2.11-6.69.23-.24.42-1.16.42-2.04s.29-1.94.64-2.34c.35-.4,1.3-2.71,2.1-5.13.81-2.42,1.75-5.02,2.09-5.78,3.18-7.01,4.51-9.7,5.66-11.42,4.41-6.63,3.47-9.97-3.33-11.74-3.3-.86-3.06-.89-4.68.6M244.82,74.93c3.9,2.04,3.98,4.93.25,9.97-.89,1.21-3.32,6.02-4.43,8.79-.2.51-.89,2.07-1.52,3.47-.63,1.4-1.57,3.93-2.09,5.63-.52,1.7-1.14,3.47-1.37,3.93-.88,1.75-3.68,11.25-5.65,19.12-.86,3.43-1.79,6.44-2.27,7.34-.27.51-.5,1.56-.5,2.32s-.21,1.52-.46,1.68c-.25.16-.46.78-.46,1.39s.21,1.23.46,1.39c.25.16.46-.02.46-.4s.48-1.27,1.07-1.99c.59-.72,1.35-2.04,1.7-2.93.34-.89.78-1.83.96-2.08.18-.25,1.34-2.44,2.57-4.86,5.99-11.76,13.94-21.24,17.28-20.6.9.17,2.3.29,3.1.26,2.35-.08,7.52,3.68,9.46,6.87,2.45,4.04,2.16,14.43-.54,19.57-.23.43-.94,2.3-1.59,4.15-2.4,6.86-7.55,13.99-17.19,23.81-7.91,8.05-9.7,9.08-16.35,9.43-4.68.25-5.54.78-5.56,3.48,0,.51-.42,2.07-.93,3.46-.51,1.39-.92,2.57-.92,2.6,0,1.68-6.12-1.4-8.55-4.3l-1.76-2.11.27-3.86c.17-2.43.56-4.3,1.05-5.04.62-.95.72-1.88.51-4.76-.22-2.95-.17-3.36.27-2.31.29.7.78,1.27,1.08,1.27,1.29,0,1.21-5.24-.08-5.74-.73-.28-.88-1.66-.18-1.66.25,0,.46.21.46.46s.19.46.41.46c.72,0,2-3.29,1.76-4.53-.13-.66-.06-1.52.15-1.92.58-1.11,2.81-10.58,2.96-12.52.05-.64.33-1.74.64-2.46.3-.72.55-1.73.55-2.24s.29-1.6.63-2.4c1.46-3.35,1.81-5.35,1.49-8.45-.26-2.55-.21-3.01.3-2.59.92.77,1.9-.05,1.52-1.26-.19-.61-.08-1.33.3-1.79,1.74-2.18,2.2-3.78,1.08-3.78-.74,0-.97-1.63-.28-2.05.23-.14.52-.93.65-1.76.46-2.92,3.88-12.88,6.08-17.7.58-1.27,1.75-4.07,2.6-6.22,2.81-7.08,5.92-8.99,10.62-6.53M294.19,75.46c-.95.79-2.07,2.09-2.48,2.89-.41.8-.88,1.57-1.03,1.69-.15.13-.53.68-.83,1.22-.3.55-1.64,2.94-2.98,5.32-1.33,2.38-2.93,5.37-3.55,6.64-.62,1.27-1.42,2.87-1.76,3.54-.35.68-.64,1.94-.64,2.81s-.49,2.61-1.1,3.86c-.6,1.26-1.46,3.53-1.91,5.06-.45,1.53-.99,3.19-1.2,3.7-1.31,3.09-4.45,12.84-5.28,16.43-.44,1.91-1.07,4.2-1.38,5.09-.8,2.26-1.62,5.83-1.62,7.08,0,.58-.29,1.46-.64,1.96-1.17,1.68-2.23,17.42-1.24,18.42.27.27.49.94.49,1.49,0,1.75,2.46,5.58,5.16,8.02,7.5,6.79,15.05,4.71,23.31-6.43,3.09-4.16,7.74-9.25,8.45-9.25.23,0,.67,1.82.98,4.05,2.03,14.5,16.06,20.39,26.85,11.27,3.74-3.16,8.81-8.18,8.81-8.72,0-.26.33-.75.73-1.08.87-.72,7.47-9.53,10.38-13.85,1.12-1.65,2.53-3.53,3.14-4.16,1.56-1.62,5.64-7.86,5.64-8.62,0-1.1-.67-.7-2.78,1.68-1.13,1.27-2.32,2.31-2.64,2.31s-.59.21-.59.46-.26.48-.58.49c-.32.01-1.31.94-2.2,2.05-1.63,2.04-2.65,2.69-2.14,1.37.41-1.06-.94-1.35-2.26-.49-.63.42-1.15.91-1.15,1.09,0,.58-11.16,11.86-15.03,15.2-2.03,1.75-4.04,3.49-4.48,3.88-3.24,2.86-8.1,4.65-10.77,3.98-1.44-.36-1.72-6.43-.5-10.94.38-1.39,1.04-3.99,1.48-5.77,1.17-4.77,2.56-6.83,4.19-6.21,3.05,1.16,12.87-3.38,16.82-7.76,10.62-11.79,13.08-21.29,6.92-26.75-1.99-1.77-9.1-1.31-13.61.87-6.79,3.29-16.68,15.5-23.21,28.67-.75,1.51-2.37,3.67-3.65,4.86-1.27,1.18-3.77,3.5-5.56,5.15-1.79,1.65-6.38,6.1-10.2,9.89-8.99,8.9-9.7,9.46-10.82,8.44-1.11-1.01-1.57-6.98-.92-12.08.92-7.24,1.24-9.28,1.78-11.11.3-1.02.74-2.96.99-4.33s.75-3.21,1.12-4.11c.37-.89.68-2.18.68-2.86s.29-1.64.63-2.14c.35-.5.74-1.64.87-2.53.13-.89.45-2.24.71-3.01s.84-2.64,1.27-4.16c.93-3.29,1.18-3.97,2.43-6.71.52-1.15,1.31-3.33,1.75-4.86.75-2.61,2.3-6.19,5.72-13.19,1.33-2.73,2.89-5.24,7.33-11.83,3.9-5.79-2.59-12.39-7.89-8.02M301.19,76.98c2.24,2.24,2.05,3.07-2.11,9.33-4.45,6.69-10.03,17.87-11.23,22.49-.29,1.12-1.03,3.13-1.65,4.47-.62,1.34-1.13,2.85-1.13,3.34s-.42,1.58-.92,2.42c-.51.83-.93,2.04-.94,2.67,0,.64-.32,1.68-.68,2.31-.36.63-.68,1.78-.69,2.54-.02.76-.33,1.91-.69,2.54-.36.64-.67,1.75-.68,2.47,0,.73-.32,1.87-.7,2.55-.37.68-.87,2.48-1.11,4-.24,1.53-.77,4.01-1.18,5.51-.42,1.5-.85,3.59-.95,4.63-.11,1.04-.42,3.84-.69,6.21-.86,7.55.38,13.49,2.82,13.49.46,0,4.57-3.63,9.14-8.1,4.57-4.45,8.52-8.1,8.78-8.1.98,0,1.02.97.09,2.27-.52.74-.95,1.55-.95,1.81s-.26.59-.58.73c-.32.15-.14.16.4.03.56-.14,1.22.06,1.56.47.74.9,1.15.89,2.08-.04,1.05-1.05,1.35-.53.36.63-2.21,2.61-2.81,3.37-5.27,6.64-9.12,12.12-19.19,12.44-25.39.8-3.08-5.78-2.03-21.53,1.62-24.07.26-.18.42-1.48.36-2.88-.09-2.09.01-2.5.58-2.28.54.21.69-.17.69-1.81,0-1.35.26-2.29.75-2.69.57-.47.69-1.13.49-2.74-.21-1.76-.1-2.22.64-2.68.69-.43.89-1.09.89-2.88,0-1.28.42-3.51.93-4.95.51-1.45.92-3,.92-3.46s.31-.83.69-.83c.4,0,.69-.42.69-1.01,0-1.09.45-2.75,1.93-7.09.52-1.53,1.12-3.77,1.33-4.98.37-2.1,3.2-8.45,5.32-11.9.54-.89,1.68-2.87,2.51-4.4,2.52-4.59,5.54-8.95,6.39-9.19,1.81-.52,4.01.16,5.58,1.72M445.19,76.49c-2.9,1.49-4.06,2.63-2.65,2.63.38,0,1.31-.52,2.06-1.15,8.5-7.15,23.97,3.5,19.21,13.22-.95,1.93-3.39,9.01-3.39,9.83,0,1.79-2.1,4.47-3.5,4.47-1.33,0-3.44-2.47-3.44-4.01,0-1.43,1.34-6.23,1.9-6.84.23-.24.41-.78.41-1.2s.33-1.42.73-2.23c1.03-2.07,1.14-8.54.16-9.53-1.68-1.69-12.51,7.52-12.43,10.57l.04,1.45.82-1.76c1.04-2.24,3.64-4.93,7.26-7.53,3.8-2.73,3.87-2.7,3.87,1.55,0,3.56-.25,4.54-2.72,10.65-1.99,4.93-.26,9.81,3.46,9.81,4.23,0,9.82-18.77,7.15-24-3.75-7.35-11.48-9.77-18.97-5.93M426.84,97.81c-1.22,1.65-2.65,3.73-3.17,4.61-.52.88-2.53,4.17-4.47,7.31-1.94,3.14-3.93,6.44-4.41,7.33-.49.89-1.66,2.81-2.61,4.26-.94,1.45-1.71,2.76-1.71,2.9s-.57,1.14-1.26,2.22c-3.39,5.26-11.14,21.04-12.32,25.09-.45,1.53-1.01,3.14-1.25,3.58-.24.44-.44,1.34-.44,2s-.34,2.23-.75,3.5c-1.52,4.66-.66,8.43,3.39,14.89,2.58,4.11,12.85,8.7,19.34,8.64,2.63-.02,8.13-1.44,11.63-3,6.02-2.68,10.29-4.39,10.97-4.39.77,0,1.94-1.29,1.54-1.69-.26-.26-7.83,2.76-8.87,3.54-.48.36-4.06,1.71-8.79,3.32-11.42,3.87-26.23-3.37-28.49-13.93-1.81-8.44,4.62-24.45,19.81-49.29.31-.51.83-1.45,1.16-2.09.52-1.02,4.1-6.85,6.49-10.54.44-.69.94-1.56,1.11-1.94s1.07-1.74,1.99-3.01c2.35-3.21,3.88-5.79,3.6-6.07-.13-.13-1.24,1.12-2.46,2.78M429.95,99.6c-2.33,2.52-6.04,7.37-6.32,8.27-.17.54-.92,1.84-1.66,2.89-2.52,3.59-6.42,9.5-6.42,9.74,0,.13-.92,1.76-2.04,3.61-3.31,5.47-4.8,8.19-7.17,13.09-7.34,15.18-9.38,20.89-9.48,26.56-.06,3.67.84,4.36,1.29.98.34-2.6.89-2.97,1.59-1.06l.47,1.27.04-1.51c.02-.83-.22-1.93-.54-2.44-.48-.77-.44-1.17.23-2.34.44-.78.81-1.66.81-1.96,0-.8,3.97-10.01,4.58-10.62.28-.28.51-.73.52-1,0-.52,2.81-6.24,6.36-12.98,2.25-4.27,5.62-9.6,6.24-9.87.19-.09.35-.55.35-1.04s.18-.89.41-.89.54-.36.7-.81c.16-.45.96-1.89,1.79-3.2.82-1.32,2.63-4.23,4.02-6.48,1.39-2.25,3.42-5.4,4.51-7,2.61-3.83,2.42-6.12-.26-3.21M232.36,104.14c-.53,1.1-.97,2.53-.98,3.18,0,.65-.32,1.59-.69,2.08-.37.49-.68,1.54-.69,2.31,0,.78-.32,1.82-.69,2.31-.87,1.15-.87,2.57,0,2.57s2.03-2.46,2.53-5.36c.21-1.25.87-3.58,1.46-5.17,1.36-3.66.64-5.17-.92-1.93M284.47,106.6c-.19.48-.24.98-.1,1.12.42.42.79-.27.62-1.15-.16-.81-.19-.8-.52.03M431.08,108.99c-2.66,3.63-6.74,9.83-6.74,10.25,0,.17-1.24,2.4-2.76,4.96-3.64,6.15-4.85,8.31-6.35,11.37-.69,1.4-2.79,5.67-4.68,9.49-13.48,27.31-10.82,34.93,10.31,29.52,8.5-2.18,23.83-10.41,23.83-12.8,0-.24-.38-.1-.85.32-.47.42-1.07.77-1.35.77s-1.49.75-2.68,1.66c-1.2.92-3.14,2.19-4.32,2.84-1.18.65-2.97,1.64-3.99,2.19-1.02.56-4.14,1.8-6.94,2.75-2.8.96-5.53,1.95-6.08,2.21-1.86.89-12.26.67-13.7-.28-1.94-1.28-1.57-10.43.59-14.58.21-.4.84-2.08,1.42-3.73,1.27-3.68,10.66-22.89,13.71-28.04,1.22-2.06,2.95-5.05,3.84-6.64,1.57-2.82,7.28-11.59,7.84-12.06.39-.33,1.88-2.69,1.88-2.99,0-.83-1.02.13-2.97,2.78M539.93,107.23c-.65.7-1.57,2-2.05,2.89-.48.89-1,1.72-1.16,1.85-.91.75-5.99,11.74-7.57,16.37-.62,1.81-1.57,4.44-2.1,5.84-.54,1.4-1.4,4-1.92,5.78-.52,1.78-1.1,3.66-1.29,4.17-.64,1.71-3.12,9.69-3.95,12.72-.45,1.65-1.4,4.88-2.1,7.17-.7,2.29-1.53,5.31-1.83,6.71-.82,3.82-2.26,8.22-2.33,7.17-.17-2.38.14-8.53.53-10.29.24-1.08.63-3.27.87-4.86.98-6.38,1.88-11.37,2.58-14.23.4-1.65.9-3.84,1.11-4.86.21-1.02.58-2.47.84-3.24.25-.76.69-2.43.97-3.7.28-1.27.92-4.08,1.42-6.25.5-2.16,1.15-5.39,1.45-7.17.29-1.78.95-4.13,1.46-5.22,1.5-3.19-.33-7.5-3.18-7.5-.39,0-1.08-.47-1.56-1.04-1.64-2-3.89.24-8.39,8.35-1.03,1.85-2.11,3.63-2.41,3.93-2.21,2.32-2.33,4.1-.13,1.89,1.12-1.12,2.62-1.27,2.62-.27,0,.49-2.38,4.13-4.73,7.27-.96,1.27-1.74,2.48-1.74,2.69,0,.21-.63,1.29-1.39,2.4-.76,1.11-1.39,2.15-1.39,2.31s-.52.98-1.16,1.81c-.64.83-1.16,1.65-1.16,1.82,0,.89-4.41,6.34-4.55,5.63-.27-1.35.4-3.93,1.02-3.93,1.07,0,2.6-2.09,2.6-3.56,0-.78.31-1.68.69-1.99s.69-.78.69-1.04.63-1.17,1.39-2.04c.76-.87,1.39-1.79,1.39-2.04s.52-.66,1.16-.9c.93-.35,1.16-.76,1.16-2.04,0-.88.21-1.73.46-1.89.55-.34.62-1.62.09-1.62-.2,0-1.18,1.25-2.17,2.78-.99,1.53-1.94,2.78-2.12,2.78s-.44.36-.6.81c-.15.44-.75,1.54-1.33,2.43s-1.88,2.93-2.9,4.53c-6.24,9.84-11.71,17.67-12.33,17.67-.92,0,1.14-8.33,3.89-15.73.99-2.67,2.14-5.79,2.54-6.94s1.45-3.44,2.33-5.09c1.57-2.96,3.35-7.8,3.35-9.12,0-2.53-7.6-5.65-9.98-4.09-1.43.94-7.22,12.64-8.29,16.76-.75,2.88-2.09,4.87-4.72,7-4.74,3.86-12.13,9.59-13.67,10.62-1.63,1.08-2.23,1.96-1.34,1.96s16.73-12.46,18.12-14.22c.52-.66,1.41-1.44,1.98-1.73.85-.43,1.01-.86.91-2.44-.17-2.64,4.73-14.16,7.17-16.88.77-.85,2.41-1.07,3.15-.43.24.21,1.32.64,2.41.94,3.72,1.06,3.93,3.63.81,9.78-2.77,5.46-6.31,14.33-7.19,18.05-.21.89-.83,3.08-1.38,4.86-.54,1.78-1.17,4.17-1.4,5.32-.22,1.15-.55,2.78-.72,3.64-.45,2.29.53,1.73,3.19-1.8,1.96-2.62,2.25-2.84,2.48-1.94.43,1.63,5.25-.58,5.25-2.41,0-.19.31-.65.69-1.03s.69-.61.69-.5c0,.23-1.26,3-1.91,4.2-.62,1.13-.23,1.45.67.55,2.94-2.94-.32,3.58-4.94,9.91-2.45,3.35-3.95,4.61-5.5,4.63-1.36.01-4.96-1.99-4.96-2.77,0-.25-.27-.46-.6-.46s-1.4-.82-2.37-1.81l-1.77-1.81.54-3.08c.3-1.7.93-4.16,1.41-5.48,1.21-3.35,1.55-5.26.98-5.61-.68-.42-2.35.57-2.35,1.38,0,.38-.43.68-.99.68s-2.27,1.09-3.83,2.43c-1.57,1.34-4.23,3.36-5.91,4.49-2.34,1.57-3.11,2.37-3.26,3.36l-.19,1.29,1.66-1.6c1.89-1.83,9.83-8.12,10.26-8.12.15,0,.19,2.03.08,4.51l-.2,4.51,2.01,2.64c1.11,1.45,2.43,2.78,2.93,2.96.51.17,1.42.8,2.02,1.4,3.84,3.81,8.95,1.29,13.29-6.53.8-1.44,6.01-9.7,9.19-14.58,1.58-2.42,3.27-5.23,3.76-6.25l.89-1.85.14,1.72c.08.94-.08,2.13-.35,2.63-.27.5-.49,1.57-.49,2.38s-.29,2.54-.64,3.85c-1.38,5.15-2.18,11.46-2.27,17.88l-.1,6.71,1.62,2.12c1.7,2.23,6.12,5.05,7.89,5.05,1,0,1.01.08.7,4.51-.56,8.03,1.07,13.53,4,13.53.21,0,1.16.49,2.11,1.1,4.51,2.85,6.96,1.82,5.04-2.13-1.89-3.87-1.48-11.88.9-17.32.35-.8.64-1.6.64-1.78s.3-.98.66-1.78c.36-.8.98-2.39,1.37-3.54,1.76-5.18,3.1-8.41,3.78-9.19.08-.09.94.43,1.91,1.17,3.66,2.8,9.87,3.69,14.06,2.02,6.5-2.6,18.96-14.82,21.22-20.83.34-.89,1.09-2.67,1.67-3.95,3.43-7.55,3.82-25.2.56-25.2-.19,0-.35-.3-.35-.66,0-3.9-11-8.04-13.47-5.06-.29.35-.76.64-1.05.65-.79.02-3.84,3-5.08,4.96-.6.95-1.75,2.43-2.56,3.29-.8.86-2.32,2.89-3.37,4.51-1.05,1.62-2.08,2.95-2.29,2.95s-.8.88-1.31,1.97c-1.19,2.49-2.63,4.98-3.25,5.6-.26.27-.48.83-.48,1.26s-.31,1.03-.69,1.35c-.58.48-.69.42-.69-.38,0-.53.21-1.08.46-1.24.25-.16.46-.69.46-1.19s.19-1.26.42-1.71c.87-1.66,4.68-11.47,4.67-12.03,0-.6.44-1.51,2.1-4.27.53-.89,1.61-2.69,2.39-4,2.97-4.99,2.68-8.09-.82-8.8-.76-.15-1.5-.46-1.63-.68-.54-.88-2.82-.38-3.98.87M155.12,106.8c-5.26.38-11.35,8.91-11.91,16.67-.08,1.11-.53,2.67-1,3.47-.47.8-1.23,2.71-1.7,4.23-.47,1.53-1.03,2.97-1.25,3.22-.22.24-.4.93-.4,1.53s-.28,1.65-.61,2.34c-.34.69-1,2.6-1.47,4.26-.47,1.65-1.22,3.42-1.66,3.93-.53.61-.73,1.36-.56,2.2.14.7.04,1.85-.23,2.54-.26.7-.95,2.88-1.52,4.84-.82,2.79-1.18,3.47-1.64,3.08-.45-.37-.65-.23-.82.59-.12.59-.33,1.6-.46,2.24-.13.64-.49,2.17-.81,3.41-.76,2.95.92,6.5,4.08,8.68,4.08,2.81,6.67,2.1,7.23-1.98.24-1.79,1.95-5.94,3.67-8.95.29-.51,1.45-2.7,2.59-4.86,1.13-2.16,2.34-4.1,2.69-4.3.82-.48.82-1.25-.02-1.25-.75,0-1.77,1.68-5.95,9.72-3.03,5.83-3.72,7.59-4.26,10.76-.55,3.28-6.23,1.06-8.36-3.27-.85-1.72-.59-3.1.5-2.68.95.36,1.43-.99.74-2.09-.3-.49-.34-.86-.1-.86s.66.36.92.81c.68,1.16,1.4-.03,1.41-2.32,0-.96.19-2.1.42-2.54,1.03-2,1.99-7.42,1.48-8.36-.78-1.47-.67-3.35.14-2.28,1.19,1.57,1.81.98,1.47-1.39-.46-3.22-.39-3.94.41-4.39.54-.31.65-.87.45-2.34-.25-1.8-.21-1.88.45-1.06.95,1.17,1.44.05.76-1.74-.51-1.34,1.01-6.51,3.4-11.58.61-1.3,1.27-3.62,1.45-5.14.89-7.32,7.39-15.51,11.21-14.13,1.7.62,2.27.44,1.66-.52-.25-.4-1.1-.56-2.41-.47M544.98,107.89c3.55,1.47,3.44,2.37-1.19,10.42-1.05,1.83-2.2,4.12-2.55,5.09-.35.97-1.42,3.74-2.38,6.16-.96,2.42-1.91,4.81-2.1,5.32-.19.51-.91,2.25-1.61,3.87-.69,1.62-1.37,3.81-1.5,4.86-.13,1.05-.43,2.15-.66,2.44-.23.29-.3,1.02-.15,1.62.19.74-.34,2.4-1.63,5.15-1.28,2.73-1.85,4.54-1.76,5.54.2,2.12,1.36,2.12,2.4,0,.47-.96,1.03-2.06,1.25-2.44.21-.38,1.11-2.05,1.99-3.7,1.69-3.16,5.17-9.16,7.77-13.38.85-1.38,1.96-3.19,2.47-4.03,2.04-3.35,6.45-9.6,8.17-11.59,1-1.16,1.75-2.45,1.66-2.86-.1-.45.99-1.89,2.73-3.6l2.9-2.85,2.68.69c13.17,3.38,10.54,29.88-4.45,44.89-10.96,10.97-17.99,13.02-25.63,7.49-2.83-2.05-3.34-1.74-5.1,3.12-.36.98-1.41,3.87-2.33,6.42-.92,2.54-1.87,5.04-2.1,5.55-.24.51-.54,1.45-.69,2.08-.14.64-.68,3.03-1.19,5.32-1.03,4.61-.91,7.08.5,10.35,1.09,2.52,1.1,3.3.05,3.3-1.11,0-7.89-4.07-8.38-5.02-1.41-2.75-.77-13.34,1.28-21.35,2.88-11.26,4.26-16.25,5.98-21.75.52-1.65,1.29-4.26,1.71-5.78.42-1.53.94-3.19,1.15-3.7.21-.51,1.06-3.01,1.88-5.55,2.41-7.48,2.83-8.74,3.25-9.72.22-.51.83-2.07,1.35-3.47,3.37-9.03,9.54-19.89,11.29-19.89.27,0,1.59.45,2.93,1.01M344.23,109.52c4.75,3.44,3.94,9.83-2.42,19.1-5.6,8.15-12.74,13.09-19.23,13.3-1.67.05-3.25.11-3.51.12-1.72.09-5.36,13.08-5.48,19.6-.11,5.76,3.14,7.15,9.15,3.94,2.02-1.08,2.84-1.71,9.48-7.25,5.14-4.29,6.16-4.75,3.74-1.7-2.31,2.91-.31,2.69,2.97-.32.8-.73.93-.74,1.42-.08.56.77.88.51,5.03-4,3.11-3.38,1.6-.28-2.03,4.17-.93,1.15-2.24,2.95-2.9,4.01-1.89,3.03-10.71,10.72-14.12,12.32-9.02,4.22-20.07-3.72-20.48-14.72-.06-1.52-.31-3.54-.56-4.49-.33-1.25-.31-1.9.09-2.38.3-.36.51-1.36.45-2.21-.05-.85.25-2.22.68-3.03.43-.82.78-1.87.78-2.35,0-1.74,1.59-5.52,4.01-9.5,1.36-2.24,2.47-4.25,2.47-4.47s.16-.47.35-.55c.2-.08,1.07-1.3,1.94-2.7,8.92-14.28,21.4-21.72,28.18-16.8M129.76,110.4c-.87.92-1.98,2.43-2.48,3.35-.5.93-1.42,2.52-2.05,3.54-.63,1.02-1.48,2.51-1.89,3.32-.41.81-1.04,1.58-1.41,1.72-.36.14-.66.57-.66.96s-.21.71-.46.71-.46.46-.46,1.03c0,.92.16.84,1.42-.69,2.77-3.36,4.28-1.83,1.7,1.72-3.61,4.96-8.94,13.29-10.8,16.85-.58,1.12-1.67,2.68-2.42,3.47-.75.79-1.7,2.1-2.1,2.9-.4.8-1.01,1.74-1.34,2.08-.34.34-.96,1.14-1.4,1.77l-.79,1.14v-1.7c0-1.59,2.17-4.51,3.35-4.52.19,0,.35-.41.35-.9s.21-1.03.46-1.18c.25-.16.46-.79.46-1.41,0-.67.27-1.13.66-1.13.95,0,2.58-2.24,2.58-3.54,0-1.18,1.69-4.15,2.94-5.2.42-.34.76-.9.76-1.23s.62-1.05,1.39-1.59c.99-.71,1.39-1.37,1.39-2.32,0-.73.21-1.46.46-1.62.25-.16.46-.74.45-1.3-.01-1-.02-1-.68-.09-.37.51-.93,1.22-1.26,1.58-.33.36-1.01,1.31-1.52,2.11-1.8,2.84-6.34,9.75-7.21,10.99-.49.69-.89,1.47-.89,1.74s-.21.48-.46.48-.46.19-.46.43-.88,1.75-1.96,3.35c-1.08,1.61-2.17,3.25-2.43,3.66-6.71,10.54-6.92,9.21-1.39-8.83.43-1.4.97-2.9,1.19-3.33.23-.43,1.17-2.72,2.1-5.09.93-2.37,2.09-4.87,2.57-5.56,1.04-1.48,2.7-6.1,2.7-7.53,0-2.09-6.33-5.35-9.06-4.67-1.38.35-3.88,4.08-5.85,8.77-.76,1.81-1.76,4.02-2.22,4.91-.46.89-1.07,2.56-1.36,3.7-.29,1.14-.75,2.54-1.03,3.1-.4.8-.35,1.27.24,2.17.94,1.43.56,3.11-.41,1.79-.78-1.07-1.04-.76-1.62,1.99-1.04,4.88-1.22,5.55-1.78,6.59-1.49,2.77-2.42,13.06-1.35,15.03,2.12,3.92,7.45,7.73,10.82,7.73,2.29,0,5.76-2.39,5.76-3.98,0-.26.63-1.07,1.39-1.8.76-.73,1.39-1.57,1.39-1.86s1.06-2.06,2.36-3.94c1.29-1.88,2.84-4.39,3.44-5.57s1.6-2.75,2.22-3.49c.62-.74,1.59-2.17,2.15-3.19,3.72-6.71,4.87-7.59,3.72-2.86-.45,1.82-1.05,4.88-1.35,6.79-.29,1.91-.85,5.24-1.24,7.4-.39,2.16-.75,6.74-.79,10.18l-.09,6.25,1.54,2.4c.85,1.32,1.96,2.54,2.48,2.7.52.16,1.67.8,2.57,1.41,3.21,2.18,5.87.59,4.74-2.83-.57-1.73-.32-7.24.53-11.32.24-1.15.64-3.54.89-5.32,1.54-10.75,2.15-13.95,3.65-18.97,1-3.33,1.56-5.91,2.3-10.51.23-1.46.56-2.86.72-3.12.41-.67,1.63-5.46,1.63-6.41,0-.44.51-2.41,1.14-4.39,1.56-4.9.29-8.65-2.92-8.65-.43,0-1.14-.42-1.58-.92-1.1-1.28-1.61-1.17-3.42.74M423.7,111.23c-.42.88-.91,1.67-1.1,1.75-.57.26-2.17,2.78-3.52,5.58-.7,1.46-1.45,2.76-1.65,2.88-.21.13-1.48,2.11-2.82,4.41s-2.66,4.17-2.91,4.17-.11-.38.31-.85c.42-.46.77-1.08.77-1.37,0-.73,1.75-3.82,2.82-4.98.48-.53.88-1.21.88-1.53,0-.67,2.88-5.27,4.16-6.65.49-.52,1.23-1.69,1.66-2.59.83-1.74,1.7-2.87,1.99-2.6.1.09-.16.89-.58,1.77M133.05,110.83c.49.37,1.24.68,1.65.68.9,0,2.54,1.69,2.95,3.03.16.54-.3,2.61-1.09,4.86-.76,2.15-1.38,4.54-1.39,5.3s-.52,3.47-1.14,6.01c-.63,2.55-1.78,7.33-2.56,10.64-.78,3.31-1.72,7.16-2.09,8.56-.36,1.4-.99,4.73-1.4,7.4-.4,2.67-.92,5.9-1.15,7.17-.97,5.38-1.55,13.47-1.07,14.87.99,2.83-.54,3.66-3.3,1.79-.94-.64-1.98-1.16-2.32-1.16-3.31,0-4.82-8.34-3.28-18.08,1.82-11.5,3.64-20.23,4.92-23.48.37-.94.31-1.04-.51-.78-.94.3-1.46-1.33-.54-1.69,1.73-.69,4.05-5.94,2.62-5.94-.93,0-.87-.76.17-2.24,1.83-2.59,3.52-6.39,3.83-8.62.94-6.75,3.27-10.16,5.69-8.33M519.86,110.83c.49.37,1.26.68,1.7.68,2.2,0,3.69,3.56,2.57,6.18-.98,2.29-1.69,4.68-1.69,5.67,0,.5-.33,2.15-.73,3.67-.4,1.52-1.25,5.15-1.88,8.08-.63,2.93-1.33,6.17-1.55,7.2-.22,1.03-.61,2.38-.87,3.01-.68,1.66-1.76,6.92-2.6,12.7-.41,2.8-.85,5.51-.99,6.02-.31,1.17-1.07,7.36-1.41,11.45-.2,2.47-.1,3.37.52,4.31,1.58,2.42-.77,3.3-3.64,1.36-.94-.64-1.97-1.16-2.29-1.16s-1.3-.99-2.18-2.2l-1.59-2.2.07-5.31c.07-5.08.24-6.67,1.84-16.66,1.02-6.36.93-5.97,3.11-13.77.58-2.08.59-2.43.03-2.43-1.05,0-.76-1,.97-3.44,1.71-2.41,2.08-3.97.92-3.97-.38,0-.69.21-.69.46s-.2.46-.45.46c-.46,0,1.57-4.17,2.25-4.61,1.15-.75,3.04-5.98,3.49-9.67.57-4.62,3-7.41,5.09-5.83M195.91,111.7c-.96,1.28-1.28,1.22-.84-.15.17-.53.61-.96.99-.96.56,0,.54.2-.15,1.11M251.92,112.77c-3.37,3.35-8.89,11.11-11.21,15.76-.98,1.96-2.13,4.2-2.55,4.96-1.02,1.85-3.67,7.77-5.68,12.67-.89,2.19-2.34,5.47-3.21,7.28-.87,1.81-1.72,4-1.88,4.86-.16.86-.47,1.78-.67,2.05-.21.27-.52,1.36-.69,2.43-.4,2.48.32,2.56,3.24.33l2.12-1.62-.59,1.46c-.42,1.02-1.32,1.83-3.03,2.7-3.08,1.58-3.67,2.14-2.98,2.83.92.92,3.79,0,5.74-1.82,3.86-3.62,4.64-4.25,5.29-4.25.37,0,.67-.21.67-.46s.34-.46.75-.46c.86,0-.13,1.86-1.75,3.29-1.68,1.48-.79,1.23,1.84-.53,3.27-2.19,4.16-3.14,4.7-5.02.48-1.68-.01-1.88-1.33-.56-.88.88-.89.87-.81-.69.05-.9.33-1.58.65-1.58.32,0,.86-.68,1.22-1.5.35-.83,1.4-2.22,2.32-3.1.92-.88,1.67-1.83,1.67-2.11s.52-.97,1.16-1.53c.63-.55,1.16-1.32,1.16-1.7s.42-1.48.93-2.43c.79-1.48.83-1.76.23-1.88-.98-.21-1.07.05,2.75-7.68,5.14-10.37,6.37-16.18,4.49-21.09-1.06-2.78-2.2-2.93-4.54-.59M199.22,112.78c-1.56,1.64-7.02,9.71-8.99,13.3-.84,1.53-2.12,3.6-2.85,4.6-.73,1-1.33,2.11-1.33,2.46s-1.04,2.83-2.31,5.52c-1.27,2.68-2.31,4.95-2.31,5.03s-.91,2.09-2.03,4.46c-1.11,2.37-2.37,5.33-2.8,6.58-.86,2.53-3.24,5.82-4.22,5.82-4.67,0-8.34-8.67-6.71-15.84.79-3.45,1.52-7.46,1.74-9.49.23-2.14.9-2.48,2.14-1.11.62.68.68,1.12.3,2.11-.51,1.33-.17,4.74.51,5.16.43.27.47.18,1.22-3.01.34-1.44.33-2.37-.02-3.15-.39-.87-.34-1.38.25-2.38.92-1.55.55-2.25-1.27-2.46-1.25-.14-1.4-.34-1.53-2.01-.2-2.54-.83-3.06-1.99-1.62-2.51,3.13-3.65,4.83-3.65,5.45,0,1.02,1.17-.08,2.39-2.25,1.35-2.41,2.48-2.84,2.01-.78-.19.83-.5,2.45-.69,3.59-.19,1.15-.57,3.02-.85,4.17-3.36,13.78-2.13,21.03,4.03,23.8,3.43,1.54,5.26-.21,8.09-7.73.6-1.59,2.16-5.12,3.47-7.85,1.31-2.73,2.38-5.06,2.38-5.17s.62-1.56,1.39-3.21c.76-1.65,1.39-3.13,1.39-3.3s1.46-2.7,3.24-5.63c1.78-2.94,3.24-5.46,3.24-5.6s.79-1.32,1.75-2.62,2.14-2.98,2.63-3.74c2.16-3.4,2.9-2.77,2.07,1.79-.28,1.55-.69,4.18-.92,5.84-.22,1.66-.63,4.47-.91,6.26-.28,1.78-.57,5.32-.65,7.86-.1,3.28-.39,5.13-.98,6.35-1.03,2.13-.34,12.67,1,15.29,2.03,3.95,5.63,7.75,7.34,7.74.26,0-.41-.53-1.5-1.18-1.08-.65-1.97-1.34-1.97-1.53s-.37-.75-.82-1.25c-1.83-2.01-3.16-7.16-3.45-13.35-.13-2.77.8-4.38,1.11-1.91.32,2.59,1.07,1.05.95-1.96-.31-7.67-.29-15.34.03-17.46.99-6.5,2.44-13.65,2.77-13.65.79,0,.83,1.56.19,8.38-.69,7.38-.65,8.28.43,8.28.43,0,.64-.55.64-1.64,0-.9.3-2.93.66-4.51,1.82-7.94,2.01-11.89.56-11.89-.34,0-.99-.42-1.45-.92-1.15-1.27-2.28-1.16-3.72.35M255.72,114.63c1.67,5.65-1.25,14.68-8.73,26.95-5.17,8.49-18.55,22.65-20.01,21.18-.22-.22,3.42-10.06,3.98-10.77.2-.25,1.12-2.34,2.05-4.63,2.32-5.74,2.03-5.1,6.51-14.11,4.87-9.78,12.93-21.28,14.92-21.28.28,0,.85,1.2,1.29,2.66M338.03,115.24c-6.66,5.07-11.64,11.58-15.69,20.52-1.72,3.79-1.18,4.05,3.53,1.74,8.57-4.22,18.98-18.73,17.28-24.09-.46-1.45-1.11-1.22-5.12,1.84M342,116.77c-2.01,6.87-9.32,16.06-15.28,19.2-2.04,1.08-3.71,1.79-3.7,1.59.06-3.28,7.76-15.23,12.13-18.81,7.17-5.88,8.07-6.14,6.85-1.97M203.98,119.71c-.1.96-.18.29-.19-1.49,0-1.78.08-2.57.18-1.75.1.82.1,2.28,0,3.24M103.43,117.01c.14.23.94.54,1.78.7,4.36.82,4.65,3.87,1.02,10.86-2.18,4.19-5.77,13.18-6.69,16.72-.3,1.15-.76,2.91-1.02,3.93-.26,1.02-.68,2.37-.94,3.01-.25.63-.64,2.2-.86,3.47-.22,1.27-.53,2.99-.7,3.82-.46,2.33.4,1.84,3.24-1.81,2.24-2.88,2.58-3.16,2.58-2.11,0,1.27.97,2.28,1.29,1.34.1-.3.79-.87,1.54-1.26.79-.41,1.69-1.46,2.15-2.53.44-1.01.95-1.84,1.15-1.84.55,0,.42.71-.42,2.39-1.44,2.87-1.52,3.12-1.15,3.35.38.24,1.58-.96,2.1-2.09.16-.35.18-.02.03.74-.15.76-1.12,2.71-2.16,4.31-1.04,1.61-2.23,3.53-2.63,4.27-3.62,6.67-7.1,8.15-11.45,4.87-5.06-3.82-6.17-5.65-5.03-8.3.76-1.78,2.59-8.18,3.06-10.71.19-1.02.79-3.41,1.34-5.32.55-1.91,1.16-4.72,1.37-6.25.21-1.53.45-3.09.55-3.47.1-.38-.09-.64-.41-.58-1.17.24-.18-2.96,2.99-9.6,3.57-7.48,5.95-10.07,7.28-7.92M558.45,119.96c-1.62,1.6-4.19,4.54-5.72,6.54-1.53,2-3.13,4.09-3.56,4.65-.43.56-1.5,2.25-2.36,3.76-.87,1.51-2.43,4.14-3.48,5.84-1.05,1.7-3.16,5.52-4.7,8.47-1.54,2.95-3.27,6.14-3.85,7.08-4.09,6.6-3.72,8.88,1.44,8.88,2.5,0,3.69-.28,6.05-1.39,3.56-1.69,3.9-1.71,3.23-.23-.29.64-.4,1.28-.25,1.43.82.83,12.14-9.24,13.8-12.28.5-.91,1.42-2.48,2.06-3.5.64-1.02,1.28-2.11,1.43-2.43.15-.32.59-.58.97-.58.53,0,.63-.33.43-1.37-.27-1.35.35-2.42.75-1.29.54,1.52.91-.4.43-2.22-.7-2.61-.71-6.55-.03-11.12.83-5.6-.77-13.15-2.78-13.15-.49,0-2.21,1.31-3.83,2.9M563.61,120.9c.73,2.82.71,11.12-.04,13.9-.38,1.41-.37,2.31.05,3.57.64,1.95-1.03,6.38-1.9,5.03-.35-.55-.48-.54-.86.05-.24.38-.66,1.01-.93,1.39-.27.38-1.26,1.87-2.22,3.3-7.46,11.25-20.55,19.49-24.57,15.47-.71-.71.43-3.48,3.73-9.05.53-.89,2.15-3.91,3.61-6.71,2.88-5.53,2.98-5.7,8.36-13.88,5.87-8.93,12.13-16.24,13.46-15.73.38.15.98,1.35,1.32,2.68M239.62,120.2c-1.61,2.43-3.13,5.49-3.13,6.29,0,.37-.18.74-.4.83-.22.09-.95,1.2-1.62,2.47-.67,1.27-1.41,2.62-1.64,3.01-.79,1.31-2.35,5.08-2.33,5.66.02.78,2.3-1.84,2.3-2.65,0-.35.26-.91.59-1.25.32-.34,1.3-2.07,2.16-3.85.87-1.78,2.28-4.28,3.15-5.55,2.36-3.44,3.57-6.71,2.49-6.71-.22,0-.92.78-1.55,1.75M85.18,119.95c0,.57-.21,1.35-.45,1.74-.33.52-.45.25-.46-1.04,0-.96.2-1.74.46-1.74s.46.47.45,1.04M126,120.99c-.1.89-.38,1.5-.6,1.36-.48-.3-.56-2.22-.1-2.67.66-.66.89-.24.71,1.31M512.38,121.23c-.33,1.27-.6,1.16-.6-.26,0-.65.19-1.07.42-.92.23.14.31.68.18,1.18M221.22,121.25c0,.52-.21.82-.46.67-.25-.16-.46-.58-.46-.95s.21-.67.46-.67.46.43.46.95M553.89,120.51c0,.11-1.46,2.25-3.25,4.74-5.69,7.95-8.72,12.73-13.15,20.73-.7,1.27-1.45,2.52-1.65,2.78-.2.25-1.37,2.42-2.59,4.81-1.22,2.39-2.29,4.12-2.38,3.85-.42-1.27,3.09-8.82,5.76-12.4.59-.79,1.07-1.65,1.07-1.91s.32-.74.71-1.07c.39-.32,1.3-1.86,2.02-3.41.72-1.55,3.02-5.22,5.1-8.15,2.08-2.93,4.55-6.41,5.5-7.75,1.42-2,2.87-3.13,2.87-2.23M226.31,123.63c0,.3-.6,2.23-1.34,4.28-.74,2.05-1.7,5.49-2.13,7.66-.43,2.16-.97,4.41-1.2,5-.23.58-.42,1.95-.42,3.03s-.31,2.38-.68,2.87c-.78,1.04-.89,2.44-.25,3.44.7,1.11,1.81-.35,2.32-3.04.47-2.51,1.37-6.57,2.54-11.54.42-1.78.92-3.97,1.12-4.86.19-.89.59-2.08.89-2.63.81-1.51.71-4.77-.15-4.77-.38,0-.69.25-.69.56M129.95,124.99c-.8.45-1.18,3.18-.44,3.18.39,0,1.68-3.19,1.41-3.47-.09-.09-.53.04-.97.29M259.19,125.12c-.3.36-.66,1.45-.81,2.43-.15.98-.66,2.99-1.15,4.47-.87,2.65-1.11,3.24-2.17,5.28-.29.57-.53,1.35-.53,1.74,0,1.34.94.69,1.82-1.27.49-1.08,1.43-3.19,2.1-4.69,1.07-2.4,2.17-8.61,1.53-8.61-.13,0-.49.29-.78.65M516.53,125.46c-.7.7-.77,2.25-.1,2.25.6,0,1.04-1.1.83-2.08-.12-.6-.27-.63-.73-.16M151.1,126.82c-.17.28-.08.73.2,1.02.38.38.51.24.51-.5,0-1.12-.24-1.29-.72-.52M566.9,128.57c-1.12,1.12-1.14,1.38-.38,4.22,1.19,4.41,2.09,3.92,2.14-1.16.03-3.59-.43-4.39-1.76-3.06M149.5,130.43c0,.33-.29,1.26-.65,2.06-1.68,3.78-4.44,11.89-4.44,13.05v1.3l1.22-1.12c.67-.62,1.64-2.06,2.15-3.2.51-1.15,1.07-2.19,1.25-2.31.39-.28,1.04-2.78.72-2.78-.13,0-.55.63-.95,1.4-1.08,2.09-1.65,1.22-.85-1.3.68-2.13.84-2.57,1.98-5.38.38-.94.39-1.49.06-1.83-.34-.34-.48-.3-.48.12M356.78,132.2c-1.12.78-2.81,2.6-4.1,4.41-1.3,1.82.24,2.07,2.05.32,3.08-2.98,4.62-6.53,2.05-4.74M410.64,132.21c-.58,1.86-3.63,7.57-3.79,7.09-.26-.79,3.23-7.9,3.89-7.9.09,0,.05.36-.09.81M531.45,133.07c-.16.74-.52,1.86-.8,2.5-.91,2.04-1.79,4.36-2.19,5.78-.22.76-.9,2.85-1.52,4.63-1.47,4.26-3.47,10.81-3.74,12.26-.12.63-.96,3.55-1.86,6.48-.91,2.93-1.65,6.19-1.66,7.26s-.22,2.07-.48,2.23c-.25.16-.45.95-.43,1.76l.04,1.48.49-1.39c.27-.76.74-1.7,1.05-2.08.31-.38.93-1.84,1.37-3.24.44-1.4,1-3.17,1.25-3.93,1.4-4.28,4.03-13.24,4.62-15.73.3-1.27.83-2.76,1.18-3.29.35-.54.92-2.52,1.28-4.4.36-1.88.86-4.14,1.12-5.04.26-.89.73-2.5,1.05-3.58.44-1.48.45-2.09.05-2.5-.4-.4-.6-.2-.82.81M120.98,133.02c-.15.38-.45.69-.68.69s-.41.35-.41.77-.14.63-.31.46c-.36-.36.76-2.62,1.3-2.62.2,0,.25.31.1.69M128.64,136.26c-.65,1.27-1.45,3.56-1.78,5.09-.33,1.53-.86,3.82-1.19,5.09-.55,2.11-.99,4.47-2.58,13.79-.29,1.73-.42,3.26-.28,3.4.44.44,1.24-.31,1.24-1.16,0-.44.19-1,.43-1.24.42-.44,1.2-3.86,1.89-8.38.2-1.31.89-4.23,1.53-6.48,2.46-8.7,2.87-14.26.74-10.11M199.47,135.11c0,1.05.48,1.19,1.3.37.82-.82.68-1.3-.37-1.3-.62,0-.92.31-.92.92M515.18,137.07c-.52,1.09-1.21,3.22-1.52,4.75-.32,1.53-.86,3.71-1.2,4.86-.79,2.63-2.05,9.55-2.05,11.21,0,.7-.24,2.17-.54,3.28-.66,2.47-.09,4.63.63,2.39.25-.76.72-2.01,1.05-2.78.33-.76.95-3.37,1.38-5.78.43-2.42,1.18-5.96,1.68-7.87,2.56-9.9,2.84-14.82.57-10.07M199.34,139.62c-.27,1.42-.01,2.11.63,1.71.55-.34.56-2.39.02-2.72-.23-.14-.52.32-.65,1.01M48.53,142.86c.2.62-1.56.8-2.9.28-.62-.24-.65-.38-.15-.7.85-.56,2.82-.29,3.05.42M404.64,144.72c-1.06,2.23-1.38,1.29-.38-1.09.42-1,.87-1.55.98-1.22.11.33-.16,1.37-.61,2.31M41.59,143.75c-.44.12-1.27.12-1.85,0-.58-.11-.21-.21.8-.21,1.02,0,1.49.09,1.05.2M305.43,145.36c0,1.19-4.81,6.17-5.53,5.73-.88-.54-.53-1.2,2.13-3.98,2.84-2.98,3.4-3.27,3.4-1.75M345.8,148.15c-.56.56-1.14.9-1.28.75-.35-.35,1.07-1.76,1.76-1.76.29,0,.08.46-.48,1.02M469.68,148.87c0,.19-1.04.85-2.3,1.47-3.32,1.63-9.08,6.43-8.15,6.79.71.27,8.6-5.18,8.6-5.94,0-.19.26-.35.58-.36.7-.02,2.44-2.3,1.76-2.3-.27,0-.49.16-.49.35M495.13,148.79c0,.15-.63,1.17-1.39,2.28-.76,1.11-1.39,2.24-1.39,2.51s-.34.49-.74.49c-.49,0-.65-.25-.46-.73.15-.4.28-1.12.28-1.6,0-.96,2.19-3.22,3.12-3.22.32,0,.58.12.58.26M125.77,151.88c-.11.57-.2.1-.2-1.04s.09-1.61.2-1.04c.11.57.11,1.51,0,2.08M88.76,153.04c-.1.7-.19.13-.19-1.27s.09-1.97.19-1.27c.11.7.11,1.84,0,2.54M220.02,153.14c-.17,1.27-.59,2.54-.94,2.83-.39.33-.63,1.46-.63,2.98,0,1.35-.21,2.55-.47,2.68-.26.13-.21.18.11.12.84-.16,1.82-2.38,1.94-4.37.05-.93.34-2.15.65-2.7.66-1.21.73-3.85.11-3.85-.25,0-.58,1.04-.75,2.31M135.16,154.31c0,.89-.21,1.62-.46,1.62-.51,0-.64-2.44-.15-2.93.53-.53.62-.35.62,1.31M400.14,155.35c-.12.44-.21.08-.21-.81s.1-1.25.21-.81c.12.44.12,1.17,0,1.62M496.51,154.42c-.02,1.01-.91,1.69-.91.69,0-.57.2-1.04.46-1.04s.46.16.46.35M92.71,156.23c-.63.25-.81,1.54-.21,1.54.48,0,1.48-1,1.48-1.48,0-.41-.38-.42-1.27-.06M479.44,156.37c-.34.21-.53.62-.44.91.13.38.43.35,1.05-.11.95-.69.39-1.43-.62-.8M25.62,158.01c0,1.02.1,1.38.21.8.11-.58.11-1.41,0-1.85-.12-.44-.21.03-.2,1.05M238.06,158.17c.39.62-1,2.27-2.57,3.05-2.43,1.21-2.53.83-.39-1.36,2.08-2.12,2.54-2.38,2.96-1.7M24.42,160.47c-.45.69-.53,3.71-.12,4.12.56.57.79-.3.65-2.49-.09-1.44-.28-2.03-.53-1.64M71.74,162.29c-.03,1.11-.08,1.16-.4.35-.2-.51-.28-1.08-.17-1.27.39-.68.61-.33.58.92M440.07,167.96c-2.8,2.18-3.23,2.56-3.23,2.89-.01.78,5.29-2.21,5.47-3.08.2-1-.82-.91-2.23.19M21.34,172.12c0,.84.19,1.32.46,1.16.25-.16.46-.68.46-1.16s-.21-1-.46-1.16c-.27-.17-.46.31-.46,1.16M20.54,178.14c0,1.15.09,1.61.2,1.04.11-.57.11-1.51,0-2.08-.11-.57-.2-.1-.2,1.04M211.56,191.86c-12.93,2.77-10.63,21.1,2.65,21.1,5.88,0,10.21-2.51,8.59-4.98-.84-1.29-.89-1.29-4.12-.05-5.84,2.22-11.34-.37-11.34-5.35,0-5.59,5.86-8.26,11.81-5.37,2.22,1.08,3.09.93,4.12-.71.82-1.3.09-2.04-4.11-4.15-1.03-.52-5.97-.84-7.6-.49M249.91,191.83c-13.26,4.92-10.62,21.1,3.44,21.1,15.72,0,16.42-20.53.72-21.21-1.91-.08-3.78-.04-4.16.11M285.64,191.94c-1.07.68-.58,20.61.51,20.81,2.52.48,3.04-.17,3.18-3.97l.13-3.58,4.91-.23c5.05-.24,6.43-.73,6.43-2.3,0-1.75-1.43-2.29-6.5-2.43l-4.84-.13v-3.7l5.71-.23c6.65-.27,8.67-1.52,6.29-3.9-.8-.8-14.63-1.1-15.82-.34M321.85,192.64c-.59.91-.69,2.62-.59,10.28l.13,9.19,1.3.46c2.24.79,2.85-.03,3-4.05l.14-3.52,5.18-.13,5.18-.13.45-1.3c.86-2.45.1-2.85-5.69-3l-5.16-.13v-4.13h5.52c6.47,0,8.93-1.56,6.42-4.07-1.2-1.2-15.04-.73-15.87.53M358.06,192.06c-1.02.59-1.25,19.23-.25,20.23.39.39,2.83.55,8,.55,7.67,0,8.56-.2,8.56-1.91,0-1.87-1.18-2.25-6.92-2.25s-6.03-.07-6.03-2.53c0-1.72.94-2.06,6.04-2.2,5.24-.14,5.53-.32,4.87-2.95-.28-1.1-.37-1.12-5.35-1.12s-5.07-.01-5.36-1.16c-.6-2.38-.21-2.55,5.8-2.55s7.8-.8,6.58-3.49l-.52-1.14h-7.3c-4.09.02-7.65.24-8.11.5M394.99,192.58c-.93,1.33-1.08,18.79-.16,19.7.58.58,14.4.83,15.83.27.87-.33.98-2.52.18-3.33-.37-.37-2.44-.56-6.27-.56h-5.72l.14-2.2.14-2.2,5.04-.23c5.65-.26,6.5-.72,5.47-2.97-.53-1.18-.61-1.19-5.64-1.19h-5.1v-3.7h5.52c6.46,0,8.93-1.56,6.42-4.07-1.15-1.15-14.99-.74-15.84.47M217.89,193.02c2.94.73,4.25,1.65,4.25,2.98s-.44,1.37-2.68.23c-8.32-4.22-16.61,3.1-11.8,10.43,2.05,3.13,6.76,4.09,11.22,2.28,3.52-1.43,3.26-1.4,3.26-.35,0,3.32-8.64,4.8-13.15,2.25-10.81-6.12-3.44-20.89,8.89-17.83M257.08,192.99c6.16,1.55,9.39,8.98,6.13,14.12-4.45,7.03-16.26,6.67-19.83-.59-4.02-8.16,3.91-16,13.7-13.53M300.57,193.64c0,.87-.35.93-5.52,1.06-6.36.15-6.74.34-6.74,3.34s.42,3.18,6.04,3.34c4.48.12,4.83.2,4.83,1.06s-.35.94-4.83,1.06c-6,.16-6.04.2-6.04,4.78v3.64h-2.78v-9.16c0-6.61.16-9.32.57-9.73,1.09-1.09,14.47-.53,14.47.61M337.12,193.64c0,.87-.35.93-5.52,1.06-6.59.16-6.83.29-6.64,3.76l.14,2.59,5.44.13,5.44.13v2.28h-5.27c-6.12,0-5.83-.24-5.83,4.9,0,3.35-.03,3.43-1.16,3.43h-1.16v-9.41c0-5.17.14-9.55.32-9.73.89-.89,14.26-.09,14.26.86M373.21,193.64c0,.86-.39.94-5.92,1.16-6.53.26-6.79.38-6.79,3.24s.38,3,5.4,3.1c2.49.05,4.89.1,5.34.12.49.01.81.38.81.95,0,.87-.31.92-5.23.92-6.01,0-6.34.17-6.34,3.27s.56,3.42,6.61,3.53c5.72.1,6.48.27,6.26,1.39-.16.85-8.13,1.32-12.99.77l-2.2-.25v-8.94c0-4.92.13-9.27.29-9.68.49-1.27,14.75-.85,14.75.44M410.23,193.64c0,.87-.35.93-5.67,1.06-6.53.15-7.48.71-6.85,4.05.4,2.14,1.46,2.53,7,2.53,4.06,0,4.37.06,4.37.92s-.31.92-4.97.93c-6,0-6.28.15-6.33,3.17-.05,3.31.24,3.46,6.93,3.68,5.61.19,5.8.23,5.67,1.18-.15,1.02-12.15,1.56-14.38.65-.84-.34-1.21-13.78-.5-17.84l.27-1.52,7.23.13c6.88.12,7.23.17,7.23,1.05M250.45,195.23c-4.02,1.02-6.6,5.05-5.59,8.71,1.98,7.13,13.33,7.98,16.62,1.24,2.93-5.99-3.57-11.84-11.03-9.95M257.91,196.96c4.53,2.28,3.43,11.25-1.38,11.25-.62,0-1.5.19-1.95.44-1.82.97-6.59-.83-7.93-3.01-3.82-6.18,4.11-12.29,11.26-8.68M226.56,232.09c-.62.62-.72,1.73-.61,6.59l.13,5.85,4.56.13c4.98.15,6.19-.26,5.36-1.8-.38-.72-1-.88-3.37-.88-2.95,0-4.13-.53-3.69-1.68.17-.44,1.07-.64,2.88-.64,5.62,0,4.83-3.01-.88-3.35-3.71-.22-3.16-1.74.62-1.74s4.47-.28,4.47-1.42c0-1.86-7.8-2.75-9.47-1.08M251.15,231.8c-5.09,1.59-3.99,7.87,1.38,7.87,2.09,0,3.25,1,2.28,1.97-.79.79-4.09.2-5.53-1-.72-.6-1.68.2-1.68,1.4,0,2.54,7.26,3.83,9.89,1.76.9-.71,1.22-1.38,1.22-2.58,0-2.88-.35-3.16-6.02-4.77-2.17-.62-1.73-1.87.66-1.87,1.16,0,2.12.21,2.12.46s.64.46,1.42.46c1.19,0,1.4-.16,1.27-1-.31-2.07-4.21-3.58-7-2.71M270.15,231.84c-1.79,1.04-.72,2.74,1.72,2.74,1.42,0,1.63.72,1.63,5.56,0,3.68.09,4.12.92,4.39,1.58.5,1.85-.15,1.85-4.38,0-4.85.21-5.56,1.63-5.56,2.48,0,3.52-1.75,1.64-2.76-1.15-.62-8.34-.6-9.4.02M324.65,232.04c-2.68.95-3.74,2.48-2.55,3.68.89.89.9.89,2.02-.15,1.3-1.23,3.2-1.17,3.45.1.1.55-.8,1.76-2.58,3.48-5.05,4.85-4.83,5.63,1.61,5.63,3.43,0,4.37-.15,4.59-.7.43-1.11-.68-2.01-2.65-2.17l-1.82-.14,1.82-1.99c3.01-3.28,2.94-6.45-.18-7.75-.88-.37-1.67-.66-1.74-.65-.07.01-.95.31-1.96.67M344.98,232.07c-3.04,1.05-4.47,4.28-3.71,8.36,1.11,5.9,9.85,5.83,10.86-.09.97-5.69-2.61-9.83-7.15-8.27M365.12,232.16c-1.95.98-2.63,3.35-.96,3.35,1.44,0,1.46,6.24.03,6.61-2.76.72-1.06,2.64,2.33,2.64,3.78,0,4.42-.63,2.82-2.79-.83-1.12-.99-1.98-.99-5.25,0-5.12-.56-5.9-3.24-4.56M384.07,231.73c-4.68,2.07-4.84,7.12-.28,8.85,1.32.5,1.38.84.54,2.87-.47,1.14,1.42,1.62,2.51.64,1.37-1.24,3.72-6.05,3.72-7.62,0-3.22-3.75-5.96-6.49-4.74M232.09,233.25l2.78.07-3.32.35c-4,.42-4.26.56-3.96,2.09.31,1.63,2.03,2.69,3.75,2.31.79-.17,1.49-.09,1.67.19.19.31-.29.49-1.31.49-2.34,0-3.99.74-3.99,1.8,0,2.01.46,2.36,3.17,2.39,1.44.02,3.03.2,3.54.41,1.58.65-.15,1-4.21.85l-3.66-.14-.13-5.02c-.14-5.41.23-6.58,1.95-6.12.53.14,2.21.29,3.73.33M277.42,233.05l1.84.3-1.84.51-1.84.51-.26,4.85c-.27,5.18-.55,4.7-.44-.78.07-3.63-.65-4.72-3.22-4.85-.94-.05-.85-.13.45-.4,2.25-.47,3.19-.5,5.31-.15M251.99,233.66c-.16.25-.56.46-.9.46-.87,0-1.26,1.29-.72,2.32.5.93,1.07,1.17,3.93,1.65,4.23.7,5.23,2.99,2.21,5.04-2.41,1.64-7.99,1-7.99-.92,0-.45.47-.37,1.83.28,3.03,1.46,6.5.8,6.5-1.24,0-.95-1.37-2.04-2.56-2.04-3.91,0-7.14-3.61-4.74-5.29,1.14-.8,2.89-.98,2.44-.26M256.62,233.66c.16.26-.23.46-.9.46s-1.18-.21-1.18-.46.4-.46.9-.46,1.03.21,1.18.46M329.51,234.41c.55,1.44-.67,3.87-2.85,5.68-2.33,1.93-1.49,3.26,2.04,3.28.75,0,1.18.2,1.02.47-.16.25-1.74.46-3.51.46-4.44,0-4.53-.6-.64-4.36,2.98-2.88,3.85-4.66,2.78-5.72-.51-.51-4.61-.22-4.79.33-.19.58-1.01.67-1.01.1,0-1.76,6.3-1.98,6.96-.24M345.22,233.66c0,.25-.22.46-.49.46-.87,0-1.94,3.33-1.68,5.24.33,2.45,1.88,4.02,3.98,4.03,1.39.01,1.52.09.81.5-.94.55-3.09.18-3.09-.53,0-.25-.27-.45-.61-.45-1.55,0-2.72-5.02-1.65-7.09,1.06-2.06,2.72-3.38,2.72-2.17M349.37,233.65c1.77.95,2.43,5.44,1.16,7.9-1.07,2.06-1.66,1.64-.86-.6.8-2.23.11-6.83-1.03-6.83-.33,0-.72-.21-.88-.46-.36-.59.51-.6,1.6,0M367.33,237.65c.11,3.51.29,4.36,1.04,5.05,1.44,1.31,1.1,1.6-1.87,1.6-1.54,0-2.78-.21-2.78-.46s.21-.46.46-.46.88-.42,1.39-.92c1.69-1.7,1.11-8.33-.74-8.33-.39,0-.57-.22-.4-.49.17-.27.86-.43,1.53-.35,1.22.14,1.23.18,1.36,4.37M384.55,233.66c0,.25-.3.46-.68.46-2.27,0-1.65,3.88.71,4.4,3.24.71,5.35-2.98,2.52-4.39-1.33-.66-1.34-.7-.32-.85,1.38-.21,2.27.56,2.65,2.3.32,1.44-2.61,8.25-3.54,8.25-.57,0-.51-1.1.09-1.7.68-.68.33-2.72-.45-2.56-3.21.69-5.53-3.26-3.2-5.44,1.07-1,2.23-1.25,2.23-.48M348.46,235.28c.77.93.79,5.07.03,5.98-.86,1.04-3.13.94-3.72-.16-1.94-3.62,1.28-8.71,3.68-5.82M387.18,235.34c.41,1.08-.47,2.25-1.71,2.25s-2.12-1.17-1.71-2.25c.18-.47.82-.76,1.71-.76s1.53.29,1.71.76M292.13,241.83c-.81.33-.72,2.44.12,2.77,1.17.45,3.01-.24,3.01-1.14,0-1.54-1.46-2.3-3.12-1.63M294.09,243.38c.16.25-.14.46-.67.46s-.95-.21-.95-.46.3-.46.67-.46.79.21.95.46"/>
      <path id="path4" class="cls-1" d="M287.22.33c-1.31.31-3.34.57-4.51.58-1.17.01-2.73.21-3.47.43-.74.23-3.11.76-5.27,1.2-3.54.7-6.5,1.41-13.65,3.24-1.27.33-3.56,1.04-5.09,1.59-3.02,1.09-7.01,2.16-10.64,2.85-1.27.24-4.4,1.4-6.94,2.58-2.55,1.18-5.1,2.36-5.68,2.63-.58.27-2.46.47-4.17.45-3.82-.05-5.87.8-6.54,2.73-.53,1.52-2.15,1.57-3.78.11-.4-.36-1.27-.66-1.94-.66s-1.34-.21-1.5-.46c-.49-.8-1.88-.51-2.94.63-.87.92-1.35,1.06-3.22.87-3.42-.33-4.01.79-1.39,2.63,2.74,1.93,3.16,2.31,3.16,2.88,0,.86-2.75,3.1-4.2,3.41-1.09.24-1.37.53-1.28,1.31.07.55-.44,1.83-1.13,2.84-.95,1.4-1.26,2.4-1.26,4.16,0,3.06-.82,4.32-6.26,9.57-2.46,2.38-6.06,6.19-8.01,8.48-1.95,2.29-4.6,5.28-5.9,6.65l-2.36,2.48-1.73-.63-1.73-.62-2.03,2.3c-1.12,1.27-2.04,2.5-2.05,2.75,0,.24-.85,1.3-1.87,2.33-1.71,1.74-3.44,4.59-6.05,9.94-.56,1.15-1.34,2.27-1.75,2.51-1.77,1.03-2.84,2.58-2.84,4.12,0,.92-.48,2.29-1.16,3.28-1.36,2.01-1.44,2.95-.36,4.82.76,1.33.76,1.48-.23,3.86-.72,1.73-1.03,3.43-1.03,5.62,0,3.98.76,3.68.87-.35.05-1.83.44-3.78.98-4.99,1.08-2.39,1.16-4.21.23-4.99-.95-.79-.87-2.01.21-2.99.5-.45,1.13-1.93,1.41-3.28.35-1.68.95-2.89,1.88-3.8,1.52-1.49,4.26-5.81,5.54-8.74.46-1.06,1.84-3.08,3.07-4.49s2.93-3.4,3.79-4.42c1.48-1.76,1.66-1.84,3.55-1.58,1.97.27,2.02.24,4.69-2.68,1.48-1.62,3.33-3.57,4.1-4.34.77-.76,2.01-2.22,2.76-3.24.74-1.02,2.51-2.89,3.92-4.16,7.75-6.97,9.61-9.45,9.34-12.44-.17-1.88.85-4.31,2.04-4.85.7-.32,1.56-1.39,2.11-2.62.51-1.14,1.22-2.08,1.59-2.08,1.23,0,2.52-1.78,2.52-3.47,0-1.31.18-1.62.92-1.62.57,0,1.02-.4,1.18-1.06.42-1.67,2.48-2.35,4.52-1.5,2.49,1.04,3.49.89,4.39-.68,1.02-1.79,1.5-1.97,5.65-2.09,3.08-.09,3.98-.35,8.01-2.28,6.94-3.33,7.66-3.57,14.66-4.7,1.15-.19,2.5-.59,3.01-.9.51-.31,2.38-1.02,4.16-1.58,1.78-.56,4.18-1.35,5.32-1.74,2.07-.72,4.2-1.15,9.49-1.94,1.53-.23,4.06-.74,5.64-1.14,2.46-.63,8.41-1,21.43-1.33,4.45-.12,21.53,1.98,23.97,2.94.58.23,2.6.42,4.48.42s3.56.22,3.72.49c.2.33.51.31.97-.07.76-.63,3.21-.68,4.02-.07.3.22,2.32.37,4.48.34,4.49-.08,6.74.75,9.93,3.67,1,.92,1.97,1.67,2.16,1.67s.62.28.97.63c1.17,1.17,5.21,2.7,8.15,3.08,2.06.27,3.71.85,5.55,1.97,1.44.88,3.43,1.72,4.42,1.87.99.15,2.25.7,2.81,1.22.55.52,1.14.94,1.3.94.43,0,3.61,2.2,4.22,2.92.28.33,1.31,1.19,2.28,1.9.97.71,3.03,2.83,4.57,4.7,1.54,1.87,3.15,3.52,3.59,3.66.43.14,2.51,2.33,4.61,4.87,2.32,2.81,4.16,4.62,4.68,4.62.56,0,1.06.57,1.45,1.64.76,2.09,4.19,2.31,4.48.28.21-1.52,2.31-1.07,7.83,1.65,4.48,2.21,4.17,1.9,8.14,8.06.47.73,1.11,1.32,1.43,1.32,1.04,0,1.99,1.56,2.68,4.4.55,2.27.96,2.97,2.25,3.85.89.6,1.73,1.66,1.94,2.42.2.74.77,1.57,1.27,1.84.5.27.91.78.91,1.14,0,.9,1.75,1.37,2.57.69,2.58-2.14-2.18-12.46-6.61-14.33-.8-.34-1.04-.82-1.04-2.09,0-.91-.34-2.16-.75-2.79-.84-1.29-.72-1.36.96-.6.65.29,1.18.81,1.18,1.14s.43.83.96,1.12c1.89,1.01,7.37,7.98,7.37,9.36,0,.34.21.82.46,1.07.25.25.89,2.42,1.41,4.82.52,2.4,1.13,4.58,1.36,4.85.22.27.55,1.56.73,2.88.29,2.16.4,2.34,1.16,1.86.46-.29.71-.73.56-.98-.15-.25-.53-1.51-.84-2.8-2.63-10.95-5.05-16.05-10.03-21.1-4.43-4.49-8.65-6.77-11.23-6.06-2.29.63-3.81.27-8.02-1.9-6.5-3.35-9.94-6.02-12.39-9.61-.61-.89-2.03-2.77-3.17-4.16-1.14-1.4-2.57-3.17-3.17-3.93-.61-.76-1.56-2.37-2.1-3.58-.63-1.38-1.5-2.45-2.38-2.9-.76-.39-1.38-.9-1.38-1.13,0-.64-5.08-1.98-6.32-1.66-1.42.36-3.04-.55-6.15-3.43-2.69-2.49-3.52-2.79-4.42-1.56-.52.71-.63.7-1.4-.2-.61-.72-1.18-.91-2.11-.72-1.07.21-1.39.03-2.02-1.19-.66-1.27-.87-1.38-1.72-.93-1.09.59-1.75-.03-1.77-1.66,0-.51-.33-1.54-.72-2.28-.39-.75-.59-1.66-.45-2.03.78-2.04-3.15-2.51-10-1.19-3.05.59-5.09.67-9.65.39-3.18-.19-8.39-.31-11.57-.25-3.74.07-6.27-.09-7.17-.46-.76-.31-3.37-.73-5.78-.93-2.42-.2-6.69-.6-9.49-.89-9.12-.95-17.71-1.2-20.29-.59M214.74,10.99c-1.91.95-2.63,3.35-1.02,3.35,1.39,0,3.33-1.77,3.33-3.04,0-1.34-.2-1.37-2.31-.31M287.62,11.08c-2.17.19-4.38.79-6.71,1.82-5.84,2.58-11.2,3.84-18.87,4.45-4.05.32-7.23,1.43-9.03,3.15-3.24,3.1-3.56,3.28-5.4,3.17-1.95-.12-4.82,1.1-7.1,3-.72.6-1.7,1.09-2.17,1.09s-.97.18-1.11.41-1.33.76-2.65,1.19c-2.66.87-6.69,3.45-10.57,6.75-2.39,2.03-7.55,5.53-8.16,5.53-.15,0-1.76,1.12-3.58,2.48-1.81,1.36-4.33,3.14-5.6,3.94s-4.22,3.38-6.56,5.73c-2.35,2.35-4.85,4.81-5.57,5.48-1.23,1.13-5.74,8.39-7.99,12.84-.56,1.11-1.81,2.88-2.78,3.93-2.42,2.63-5.26,7.15-6.37,10.1-3.29,8.78-3.25,8.54-2.08,13.26.56,2.26,1.02,4.3,1.02,4.55,0,.9-3.04,3.78-4.14,3.93-.84.11-1.42.76-2.24,2.47-.61,1.27-1.43,2.9-1.8,3.62-.38.72-.55,1.44-.38,1.61.39.39,1.74-1.39,3.03-3.96.7-1.41,1.27-1.97,1.99-1.97,3.79-.03,5.87-6.87,3.55-11.67-1.08-2.24-1.15-3.83-.23-5.44.36-.64.67-1.58.68-2.11.03-1.87,3.65-8.39,7.11-12.8,1.94-2.47,4.48-6.26,5.64-8.41s2.73-4.68,3.48-5.63c.75-.94,1.36-1.9,1.36-2.13,0-.71,10.53-10.95,12.61-12.25,1.08-.68,3.37-2.35,5.08-3.72,1.71-1.36,4.31-3.13,5.78-3.92,1.47-.8,4.13-2.62,5.92-4.04,5.55-4.44,13.74-9.3,15.68-9.3.27,0,1.7-.74,3.16-1.64,2.13-1.31,3.06-1.62,4.68-1.54,2.03.1,5.4-1.88,6.05-3.56.54-1.4,4.2-2.44,10.37-2.93,6.3-.5,10.88-1.71,18.6-4.91,4.96-2.05,13.48-2.51,23.19-1.24,4.17.54,10.18,1.11,13.36,1.27,5.17.25,8.34.76,12.72,2.07.76.23,3.98.95,7.15,1.61,5.74,1.2,18.78,5.42,19.76,6.4.18.18.63.32,1.01.32s1.02.29,1.43.66c.4.36,2.72,1.68,5.15,2.94,2.43,1.26,5.45,3.02,6.71,3.91,1.26.89,3.3,2.2,4.55,2.92,1.24.72,3.43,2.49,4.86,3.93,1.43,1.45,4.68,4.03,7.23,5.74,8.02,5.38,9.19,6.6,7.82,8.15-1.42,1.62.44,7.24,3.59,10.87.45.52,1.74,2.71,2.86,4.86,1.12,2.15,2.47,4.64,3.01,5.53.54.89,1.12,1.93,1.3,2.31.17.38.8,1.34,1.39,2.13.59.79,1.07,1.69,1.07,2.01s.37,1.13.83,1.81c.46.68,1.23,2.01,1.72,2.96.49.95,1.03,1.73,1.2,1.73s.43.36.59.81c.16.44.8,1.5,1.42,2.35.81,1.09,1.07,1.91.89,2.8-.3,1.5,1.47,7.62,2.43,8.42,1.49,1.23,1.74-.33.46-2.88-.67-1.34-1.22-3.18-1.22-4.08s-.31-2.24-.69-2.97c-.38-.73-.69-1.53-.69-1.78s-.42-.98-.92-1.63c-.91-1.16-1.23-3.87-.64-5.41.35-.92,1.11-.96,1.11-.05,0,.38,1.67,2.36,3.7,4.41,2.04,2.05,3.7,3.99,3.7,4.32s.51,1.28,1.13,2.13c.62.84,1.27,2.16,1.44,2.93l.31,1.39,1.06-1.33c1.12-1.41.66-3.51-.99-4.48-.35-.2-.63-.62-.63-.92,0-1.08-2.66-6.12-3.85-7.3-.67-.66-1.84-2.85-2.61-4.87-2.34-6.13-5.28-10.64-9.61-14.76-2.14-2.04-4.65-4.74-5.58-6.02-.92-1.27-2.62-3.26-3.78-4.42-1.15-1.16-2.67-2.86-3.37-3.79s-3.36-3.08-5.92-4.78c-2.55-1.7-6.51-4.84-8.78-6.97-2.28-2.13-4.34-3.88-4.58-3.88s-2.15-1.14-4.24-2.54c-2.09-1.4-3.98-2.54-4.2-2.54s-1.91-.92-3.75-2.03c-3.9-2.37-6.05-3.39-11.44-5.41-2.16-.81-4.35-1.64-4.86-1.83-5.67-2.16-9.01-2.99-18.16-4.51-1.21-.2-2.42-.5-2.69-.67-1.32-.81-8-1.81-13.61-2.03-3.44-.13-7.64-.54-9.34-.9-3.17-.68-12.32-.79-18.65-.22M200.48,17.61c-1.31.53-1.12,1.35.53,2.28,1.34.76,2.74.29,2.99-1.01.1-.51-1.79-1.91-2.35-1.74-.05.02-.58.22-1.17.46M386.4,20.52c0,.79-1.78,2.08-2.01,1.47-.17-.43,0-.7.41-.7.37,0,.68-.21.68-.46s.21-.46.46-.46.46.07.46.16M198.56,26.63c.01,1.2.08,1.26.51.51.36-.61.35-1-.01-1.36-.37-.37-.51-.14-.5.85M391.79,28.08c-.51.51-1.22-.44-1.21-1.62l.02-1.25.71,1.31c.39.72.61,1.42.48,1.55M401.9,56.53c1.37,2.46,6.32,7.97,9.2,10.26,1.11.88,1.26,1.21.85,1.94-.57,1.01.58,3.44,1.61,3.44.39,0,.59.69.59,2.05v2.05l-1.46-.42c-2.14-.61-4.97-3.24-5-4.63,0-.4-.39-1.13-.85-1.62-.46-.49-1.23-1.57-1.72-2.4-.49-.83-1.05-1.5-1.25-1.5s-.36-.31-.36-.7c0-1.31-1.57-3.78-4.51-7.07-1.7-1.9-1.32-3.5.78-3.25.78.09,1.47.69,2.11,1.84M437.3,75.16c0,.62.21,1.26.46,1.42.27.17.46-.3.46-1.13,0-.78-.21-1.42-.46-1.42s-.46.51-.46,1.13M203.03,79.66c-1.04.58-.98,2.13.15,3.99,2.59,4.25,10.47,2.89,10.08-1.75-.15-1.8-.93-2.02-1.31-.37-.45,1.9-4.89,1.65-6.07-.35-1.03-1.75-1.75-2.13-2.84-1.52M444.77,92.86c-.74,1.77-.35,3.28,2.16,8.24,1.42,2.81,2.51,6.35,4.28,13.88.24,1.02.78,3.31,1.2,5.09.7,2.97.92,7.74.56,12.19-.11,1.31.17,2.26,1.06,3.61,1.72,2.6,4.1,10.4,4.1,13.45,0,1.82.16,2.46.58,2.32.32-.11.52-.6.45-1.08-.07-.48-.24-2.02-.37-3.42-.37-3.75-1.48-7.23-3.47-10.89l-1.77-3.26.71-2.05c.78-2.27.67-6.52-.27-10.4-1.01-4.13-2.44-8.58-2.85-8.83-.22-.14-.4-1.16-.4-2.28s-.21-2.16-.46-2.31c-.25-.16-.46-.82-.46-1.47,0-1.13-2.32-6.1-3.53-7.57-.32-.39-.64-2.05-.72-3.7-.14-2.98-.14-2.99-.76-1.52M433.47,107.34c-.65.93-.59,1.11.88,2.7,2.61,2.82,3.6,5.37,4.01,10.26.2,2.42.44,5.33.54,6.48.1,1.15.61,3.91,1.14,6.15,1.1,4.62,1.22,8.15.4,11.23-.49,1.85-.46,2.3.24,3.54.9,1.57.16,3.61-1.31,3.61-.72,0-.93.99-.34,1.58.19.19.36.49.37.66.08,1.14.85,2.32,1.78,2.75.93.42,1.14.96,1.42,3.6.3,2.81.4,3.03,1.06,2.38,1.12-1.12.88-13.03-.3-14.66-.65-.9-.84-2.04-.84-5.09,0-4.44-.98-12.5-1.58-13.16-.22-.24-.42-1.39-.43-2.54-.05-3.62-1.1-11.42-1.63-12.1-.28-.35-1.29-2.21-2.25-4.12-2.19-4.34-2.31-4.46-3.16-3.25M149.53,133.14c-.27.95-.49,2.36-.49,3.12,0,.99-.13,1.2-.42.74-.28-.44-.4-.13-.36,1.01l.05,1.66.87-1.43c.65-1.07,1.68-5.1,1.72-6.73.02-.89-1,.32-1.36,1.62M163.42,133.21c-.53.74-.96,1.85-.96,2.48s-.5,2.51-1.11,4.18c-.61,1.68-1.02,3.14-.9,3.25s-.32,1.32-.95,2.69c-1.2,2.6-2.38,10.13-1.88,12.1.15.58.34,2.51.44,4.28.68,12.79,1.19,17.46,2.03,18.65,2.03,2.89,2.88,9.37,1.28,9.7-2.02.41-4.41-1.34-6.14-4.5-3.7-6.78-3.47-5.71-2.91-13.33,1.32-17.95,1.13-20.04-1.81-19.47-1.19.23-1.11,1.17.13,1.48,1.31.33,1.32.39,1.18,6.7-.05,2.13-.34,4.63-.65,5.55-.33.99-.55,4.13-.54,7.69l.02,6.02,1.62,2.56c.89,1.41,2.14,3.55,2.78,4.77,1.46,2.79,4.18,4.2,7.23,3.75,1.84-.28,2-.21,2.7,1.14,2.28,4.41,3.24-3.27,1.14-9.11-.49-1.35-.88-2.86-.88-3.36s-.41-1.8-.91-2.87c-.53-1.14-1-3.41-1.13-5.43-.12-1.91-.24-3.65-.25-3.87s-.31-.17-.66.12c-1.28,1.06-1.92-.71-1.86-5.16.06-5.12,1.03-6.46,1.82-2.53l.49,2.42.33-1.56c.18-.86.32-2.05.32-2.64s.48-1.44,1.07-1.88c1.03-.78,1.04-.88.43-3.14-.41-1.52-.56-3.84-.44-6.62.15-3.23.05-4.41-.43-4.8-.83-.69-.81-4.1.04-6.3.53-1.38.8-4.29.4-4.29-.05,0-.52.6-1.04,1.34M437.76,149.42c0,.54.3.96.69.96s.69-.12.69-.26-.31-.58-.69-.96c-.62-.62-.69-.59-.69.26M161.25,151.04c-.22.57-.43.62-.92.22-.48-.4-.51-.75-.12-1.47.62-1.15,1.53-.04,1.04,1.25M433.17,153.04c.15,1.49,4.4,9.37,5.06,9.37.21,0,.56.51.77,1.14.29.87.55,1.04,1.08.71.57-.36.59-.6.12-1.37-.32-.51-.58-1.26-.58-1.66s-.63-1.39-1.4-2.2c-.77-.81-1.53-2-1.69-2.64-.52-2.03-3.52-5.05-3.35-3.35M194.72,157.78c-.65.51-1.4.93-1.67.93s-1.09.57-1.83,1.27c-.74.7-1.73,1.5-2.21,1.78-2.93,1.71-.6,12.4,3.04,13.95.9.38,1.94.85,2.33,1.03.39.19,2.18.35,3.98.36l3.28.02,1.71-2.29c.94-1.26,2.2-2.51,2.81-2.79,1.52-.69,1.51-4.55-.01-4.55-2.68,0-8.36-5.85-9.29-9.58-.33-1.3-.64-1.32-2.14-.14M194.38,161.25c0,.38-.21.69-.46.69s-.46-.31-.46-.69.21-.69.46-.69.46.31.46.69M460.26,163.7c-.19.31-.22.76-.07,1,.46.75-1.16,4.96-2.34,6.07-.62.58-1.12,1.3-1.12,1.6s-.67,1.46-1.48,2.58c-2.78,3.83-3.35,7.53-1.9,12.37,1.4,4.69,1.13,15.47-.46,18.16-.69,1.17-1.25,2.47-1.25,2.9,0,1.76-4.88,8.29-7.7,10.31-2.87,2.05-3.85,3.48-4.31,6.28-.98,6.01-5.58,18.49-7.75,21.01-.56.65-1.08,1.32-1.16,1.49-.36.79-7.9,7.11-10.75,9.02-3.52,2.36-4.17,2.52-5.43,1.39-.81-.73-.85-.67-.85,1.39s-.08,2.15-1.18,2.15-3.45,1.81-3.45,2.69c0,.23-.68.61-1.5.84-.85.24-1.7.88-1.97,1.48-.37.83-.8,1.04-2.08.98-2.69-.12-2.78-.06-2.78,1.6,0,1.84-.39,3.05-.97,3.05-.23,0-.41-.42-.41-.93,0-1.13.19-1.14-2.31.14-4.83,2.46-6.45,3.94-6.47,5.9,0,.93-.4,1.36-1.85,2-1.92.85-2.78.71-2.78-.43,0-.72-.43-.83-1.58-.39-.48.19-.64.62-.47,1.31.22.89-.01,1.11-1.74,1.62-2.37.7-3.62,1.7-3.62,2.91,0,.74-.24.83-1.55.58-1.33-.25-1.59-.15-1.82.71-.23.88-.39.93-1.3.44-.88-.47-1.14-.42-1.71.31-.5.65-.73.72-.9.25-.28-.74-2.9,1.58-2.9,2.57,0,.92-1.29,1.25-2.14.54-.64-.53-.72-.49-.56.29.12.6-.2,1.11-.92,1.49-1.5.79-1.6.75-1.35-.57.41-2.16-1.24-2.98-2.87-1.42-.97.92-1.65,1.22-2.38,1.03-2.13-.56-3.69,1.45-1.87,2.42.61.32,1.12.27,1.79-.2,1.65-1.15,1.54-.17-.17,1.64-1.04,1.1-2.67,2.12-4.37,2.74-1.49.54-3.29,1.46-3.99,2.04-2.11,1.73-12.64,6.55-17.48,8-1.15.35-1.36.63-1.24,1.64.48,4.03-6.31,7.55-12.6,6.53-1.35-.22-2.23.1-5.34,1.93-4.01,2.35-4.95,2.42-5.19.38-.14-1.21-.32-1.31-2.69-1.54-1.7-.16-3.04-.61-4.04-1.36-1.57-1.17-3.03-1.45-12.15-2.34-2.67-.26-5.69-.67-6.71-.92-1.02-.24-2.97-.45-4.34-.46-1.47,0-3.81-.49-5.7-1.17-1.76-.64-3.69-1.16-4.27-1.16s-1.77-.48-2.63-1.06c-1.92-1.3-6.09-3.11-7.14-3.11-.43,0-1.49-.63-2.36-1.39-.87-.76-1.92-1.39-2.34-1.39s-1.85-.75-3.18-1.66c-2.58-1.78-3.04-1.82-9.31-.86-1.41.22-2.23.1-2.99-.44-.58-.41-1.49-.74-2.02-.74-1,0-3.35-2.06-5.24-4.59-.6-.8-2.47-2.16-4.16-3.01-2.68-1.35-6.3-4.02-10.24-7.54-.64-.57-2.51-2.25-4.16-3.73-5.11-4.57-6-5.19-7.55-5.2-.81,0-1.87-.32-2.37-.69-.49-.37-1.28-.68-1.74-.68-.84,0-5.46-4.35-5.46-5.15,0-.23-1.58-1.46-3.51-2.71-4.8-3.14-9.21-9.12-8.36-11.34.39-1.03-1-3.01-2.13-3.01-1.32,0-4.52-3.34-4.52-4.72,0-.62-.52-1.62-1.16-2.22-.63-.6-1.16-1.23-1.16-1.41,0-.61,2.42-1.93,2.72-1.48.16.24,1.07.56,2.02.71,3.35.53,3.82,1.27,2.2,3.5-1.77,2.44-1.77,3.26,0,3.62.77.15,1.51.46,1.65.68,1.04,1.68,3-1.28,2.04-3.08-.48-.9-.5-1.29-.08-1.71.42-.42.25-.67-.73-1.07l-1.27-.52,1.72-.33c2.5-.47,2.64-2.48.52-7.34-.92-2.1-3.86-3.04-3.86-1.23,0,.23-.52.41-1.16.41-1.42,0-1.51.97-.3,3.33l.85,1.68-1.89.2c-2.35.25-2.48.13-3-2.62-.38-2.04-.32-2.31.69-3.19.61-.53,1.11-1.23,1.11-1.56,0-.82,1.51-1.55,3.18-1.55.77,0,1.52-.21,1.68-.46.99-1.61,4.86.16,4.86,2.22s2.1,4.9,4.69,6.28c1.37.73,2.59,1.47,2.72,1.65.48.67,2.19,1.08,5.83,1.39,8.28.71,10.13,3.45,8.69,12.86-.28,1.81-.18,2.09,1.26,3.47,2.05,1.96,3.07,3.59,3.26,5.21.11.99.61,1.55,2,2.29,1.02.54,2.58,1.71,3.47,2.6,1.65,1.65,5.97,4.59,6.76,4.59.24,0,1.12.62,1.95,1.39.83.76,1.7,1.39,1.91,1.39s1.84.83,3.6,1.85c1.77,1.02,3.71,1.85,4.33,1.85s1.86.4,2.77.88c.91.48,3.3,1.41,5.31,2.05,5.6,1.79,7.02,2.36,8.03,3.28.51.46,1.51.83,2.22.82,2.33-.04,9.43,1.25,10.87,1.97.78.39,3.21.93,5.4,1.21,2.19.28,4.71.68,5.61.9,3.3.8,8.22,1.48,12.26,1.69,2.29.12,4.42.44,4.73.7.75.63,3.48.6,4.67-.03,1.11-.59,2.09-.32,4.09,1.16,2.27,1.68,5.28,2.16,9.87,1.58,9.82-1.24,14.32-2.01,15.53-2.67.52-.29,3.54-.62,6.71-.75,3.17-.13,6.39-.43,7.15-.68,2.01-.64,4.64-1.34,8.33-2.2,1.78-.42,4.8-1.56,6.71-2.55,3.48-1.79,7.61-3.67,8.05-3.67.13,0,2.05-1.17,4.27-2.6,2.21-1.43,4.98-3.13,6.15-3.78,1.17-.65,3.54-2.45,5.27-4,1.73-1.55,3.82-3.23,4.66-3.74,4.88-2.98,11.75-8.44,19.73-15.66,2.77-2.51,6.96-7.67,8.02-9.87,1.93-4.01,2.88-5.58,5.01-8.29,1.23-1.57,2.24-2.98,2.24-3.15s.49-1.07,1.09-2.02c.6-.95,1.25-2.25,1.45-2.88.34-1.1.92-1.98,4.96-7.57,2.13-2.95,3.74-5.91,4.69-8.62.4-1.15,1.38-3.75,2.18-5.78.8-2.04,1.77-4.53,2.15-5.55,1.48-3.94,2.37-8.59,2.91-15.25.31-3.81.69-7.24.84-7.63.23-.62.16-.63-.51-.08-.43.35-.78,1.18-.78,1.85.03,5.54-2.39,19.43-3.99,22.96-1.5,3.29-3.42,8.18-3.42,8.69,0,1.18-3.07,6.6-5.96,10.51-1.78,2.42-3.36,4.87-3.51,5.45-.37,1.45-3.7,6.84-5.79,9.36-1.79,2.16-3.24,4.66-3.24,5.57,0,2.09-9.36,12.56-14.8,16.56-.89.66-2.66,2.14-3.93,3.3-1.27,1.16-4.4,3.52-6.94,5.25-2.55,1.73-6.19,4.39-8.1,5.9-1.91,1.52-5.24,3.83-7.4,5.13-2.16,1.31-4.25,2.63-4.63,2.94-1.89,1.53-13.78,7.03-18.05,8.35-6.81,2.11-8.92,2.5-14.96,2.78-3.01.14-6.03.48-6.71.75-1.23.5-3.37.98-7.71,1.75-1.27.22-5.13.55-8.56.72l-6.25.31-2.21-1.49c-2.09-1.41-2.37-1.47-5.09-1.18-2.19.23-3.23.13-4.35-.43-1-.5-2.56-.71-4.86-.66-3.77.08-8.1-.31-10.56-.96-4.33-1.15-7.84-1.85-9.18-1.85-.82,0-1.95-.3-2.52-.67-1.15-.75-5.52-1.6-10.05-1.95-2.03-.16-3.23-.49-3.7-1.03-.38-.44-1.84-1.28-3.24-1.88-5.39-2.3-7.68-3.45-8.94-4.5-.72-.59-1.79-1.08-2.38-1.08s-1.19-.31-1.34-.69c-.17-.44-.89-.7-2.02-.7-1.02,0-2.23-.39-2.91-.92-.64-.5-1.7-.91-2.37-.92-.67,0-1.47-.32-1.79-.7-.32-.38-.92-.7-1.33-.7-1.65,0-8-4.44-8.44-5.89-.1-.31-1.1-1.04-2.23-1.62-1.84-.94-2.13-1.31-2.74-3.54-.54-1.97-.99-2.68-2.2-3.39-1.86-1.1-2.23-2.12-1.59-4.4,2.1-7.56-2.58-13.09-11.07-13.09-5.18,0-9.03-2.93-10.38-7.89-.92-3.38-4.13-5.08-6.84-3.63-.53.28-1.79.54-2.81.58-1.33.05-2,.33-2.37.99-.28.51-1.07,1.67-1.76,2.58-1.12,1.49-1.22,1.92-.97,4.31.24,2.36.16,2.73-.72,3.35-1.33.93-1.25,1.68.39,3.95.76,1.05,1.39,2.15,1.39,2.43s.62,1.1,1.39,1.82c.76.72,1.39,1.48,1.39,1.7s.71.83,1.59,1.37c1.06.65,1.7,1.47,1.91,2.45.68,3.11,5.31,8.82,9.2,11.34,1.8,1.17,3.35,2.33,3.45,2.58,1.14,2.9,6.31,6.21,11.62,7.44.64.15,2.72,1.72,4.63,3.5,1.91,1.78,3.63,3.24,3.83,3.24.2,0,2.01,1.55,4.03,3.44,2.44,2.28,4.82,3.99,7.09,5.1,3.09,1.5,5.87,3.78,5.87,4.8,0,2.36,6.3,4.43,12.22,4.03l4.72-.32,1.99,1.66c1.09.91,2.45,1.66,3.02,1.66s1.44.44,1.92.97c1.08,1.19,3.09,2.27,4.24,2.27.47,0,2.53.82,4.58,1.83,2.05,1.01,4.75,2.08,5.99,2.38,1.25.3,2.83.84,3.51,1.18.69.34,2.31.63,3.61.63s3.76.21,5.46.47c1.7.25,6.22.88,10.03,1.4,5.77.78,7.22,1.14,8.64,2.12,1.15.79,2.02,1.08,2.67.88,1.16-.37,2.92.12,2.56.71-.37.6.57,2.18,1.64,2.75.98.53,5.68-1.5,6.91-2.97.46-.55,1.51-.73,4.37-.74,8.02-.03,12.27-2.18,12.67-6.42.2-2.03.36-2.35,1.22-2.35,2.55,0,14.12-5.15,17-7.57,1.11-.93,2.96-1.77,5.33-2.42,10.09-2.74,12.12-3.41,15.66-5.15,3.59-1.77,13.71-7.15,16.19-8.6,1.53-.89,5.17-2.94,8.1-4.56,7.36-4.05,11.14-7.32,18.13-15.65,1.39-1.66,4.4-4.35,6.72-6.02,10.94-7.85,15.18-12.63,16.37-18.48.29-1.42.7-3,.91-3.51,1.63-3.95,3.23-8.72,3.23-9.63,0-2.31,1.08-3.95,4.94-7.5,2.27-2.08,4.37-4.46,4.88-5.53.49-1.03,1.15-2.39,1.48-3.02,3.14-6.15,3.1-6.04,3.54-11.45.27-3.36.27-5.95,0-7-2.32-8.82-2.12-12.56.91-16.33.76-.94,1.38-1.91,1.38-2.14s.48-1.13,1.06-1.99c1.74-2.57,2.63-5.24,2.24-6.7-.23-.85-.47-1.11-.7-.75M161.39,165.34c-.13.34-.05.91.18,1.27.3.48.41.31.42-.62,0-1.38-.22-1.63-.59-.65M205.86,170.37c.5.1.59.27.27.48-.79.5-2.25-.77-1.77-1.55.33-.53.44-.51.56.13.09.43.51.85.94.94M165.7,196.65c-.66,1.22,1.74,4.71,2.41,3.51.46-.81.01-3.06-.61-3.06-.23,0-.41-.31-.41-.69,0-.99-.81-.86-1.39.24M161.42,207.95c-4.27,1.52-7.28,5.21-7.28,8.92,0,5.16,1.22,6.58,7.47,8.67,6.91,2.32,14.17-4.32,12.13-11.08-1.38-4.59-1.71-5.04-4.15-5.71-1.24-.34-2.86-.81-3.6-1.04-1.74-.55-2.46-.51-4.56.24M168.69,209.43c.5.34,1.21.63,1.57.63.91,0,1.88,1.4,1.92,2.78.02.64.29,1.76.61,2.51.75,1.75-.45,5.56-2.23,7.09-1.56,1.34-1.7,1.32-2.67-.39-.51-.89-1.06-1.34-1.48-1.18-.36.14-1.81-.15-3.22-.65-1.53-.54-3.52-.86-4.93-.8-5.1.22-4.98-4.39.22-8.65,3.01-2.46,7.69-3.08,10.21-1.34M127.6,217.68c-3.14,1.53-6.32,4.11-6.32,5.12,0,.29-.52,1.55-1.15,2.8-1.19,2.35-1.57,6.24-.73,7.56.69,1.09.04,1.88-2.68,3.25-3.84,1.94-4.18,2.5-5.95,9.74-.55,2.24,2.87,11.57,4.24,11.57.07,0,1.57.52,3.32,1.16,5.88,2.13,9.62,1.13,13.84-3.7,3.07-3.51,4.01-5.52,3.69-7.89-.27-2.02,3.34-5.94,8.4-9.12,8.13-5.12,7.54-14-1.22-18.26-8.64-4.21-10.73-4.51-15.43-2.22M139.85,226.72l.17,2.54-2.67.14c-4,.21-4.27-1.7-.75-5.41l1.93-2.04.58,1.11c.32.61.65,2.26.74,3.66M148.91,230.77c-.18.77-.21.77-.55,0-.19-.44-.19-1.17,0-1.62.44-1.02.87.25.55,1.62M147.44,233.63c-.17.27-.66.49-1.09.48-.69-.01-.67-.1.11-.69.95-.72,1.48-.6.98.21M134.14,247.56c1.43,2.29-1.79,7.14-5.11,7.68-1.51.25-1.72.14-2.43-1.22-.89-1.71.33-3.7,2.28-3.72,1.4,0,1.93-.48,2.73-2.42.77-1.85,1.52-1.94,2.53-.33M191,256.29c.13.49.03,1.25-.21,1.69-.75,1.34-.14,2.63,1.13,2.39.61-.11,1.23,0,1.39.25.3.49,1.5-1.33,1.53-2.32,0-.32-.3-.58-.69-.58s-.9-.52-1.14-1.16c-.54-1.41-2.36-1.66-1.99-.27M204.3,263.89c-.34.89-2.13,1.02-3.38.24-.89-.56-2.37-.27-2.37.46,0,.23.57.54,1.27.69.7.15,1.95.91,2.78,1.7l1.5,1.43v-1.18c0-.65.19-1.18.43-1.18.68,0,1.11-1.89.56-2.44-.35-.35-.58-.27-.79.28M211.35,271.45c-1.06,1.06.39,5.42,1.67,5.04,2.41-.71,2.34-.59,1.3-2.27-.53-.85-.81-1.7-.63-1.88.18-.18.02-.52-.35-.76-.81-.51-1.57-.56-1.99-.14M385.47,276.46c0,.38.21.69.46.69s.46-.31.46-.69-.21-.69-.46-.69-.46.31-.46.69M241.39,348.75c-.19.19-2,.37-4.03.39-2.12.03-3.91.27-4.22.58s-.88.54-1.31.54c-2.26,0-8.76,8.02-8.76,10.81,0,1.15-.25,2.65-.56,3.33-.64,1.41.33,2.52,2.22,2.52.72,0,1.17.41,1.5,1.38.77,2.21,8.24,9.27,9.8,9.27.71,0,2.3.52,3.53,1.16,2.23,1.15,2.25,1.16,4.72.36l2.48-.8.89,1.1c.49.61,1.04,1.36,1.22,1.66,1.21,2.06,3.83.93,2.93-1.26-1.5-3.62-.77-6.8,1.42-6.23,1.29.34,2.03-.89,1.32-2.21-.76-1.42-.3-2.11,1.41-2.11s2.23-1.13.89-2.22c-.93-.75-.95-.89-.28-1.44.82-.68,1-2.6.28-3.05-.25-.16-.46-.7-.46-1.2,0-1.18-1.32-3.2-2.1-3.2-.33,0-.97-.95-1.41-2.12-1.04-2.73-2.38-3.6-5.37-3.49-2.81.1-3.62-.47-3.62-2.54,0-1.55-1.46-2.26-2.51-1.21M231.86,352.23c0,.32-.78,1.45-1.74,2.5-2.65,2.94-4.28,5.3-4.28,6.22,0,.45-.22.96-.49,1.13-.27.17-.43.96-.35,1.75.11,1.09-.06,1.49-.66,1.61-.9.17-1.1-.6-.29-1.1.33-.2.41-1.1.22-2.5-.32-2.39.34-3.52,4.39-7.62,1-1.01,1.81-2,1.81-2.2s.31-.37.69-.37.69.26.69.58M251.04,355c.36.83.77,1.87.91,2.32s.62.96,1.07,1.13c1.8.67,2.63,2.91,1.09,2.91-.96,0-3.74-3.18-3.74-4.28,0-.38-.42-1.21-.92-1.86-1.16-1.47-1.16-1.72,0-1.72.61,0,1.16.52,1.59,1.5M241.23,361.06c-.68,1.49.33,5.85,1.34,5.85.53,0,2.71,2.29,2.71,2.84,0,.87-1.46.31-2.96-1.15-1.66-1.61-3.05-1.59-3.06.06,0,1.77-3.47,4.36-4.42,3.3-.47-.52-1.65-1.39-2.62-1.93-3.83-2.15-5.05-8.22-1.66-8.22.46,0,.83.21.83.46,0,.58,2.1.61,3.15.05.43-.23,1.61-.55,2.63-.7,1.23-.19,2.14-.68,2.72-1.47,1.1-1.49,2.11-.82,1.33.9M248.39,371.04c.74.96.75,2.36.01,2.34-1-.02-2.2-1.2-2.2-2.16,0-1.12,1.38-1.23,2.18-.18M250.62,379.91c.7,1.35.69,1.42-.1,1.27-.52-.1-.9-.64-.99-1.43-.19-1.66.18-1.6,1.09.16"/>
    </g>
  </g>
</svg>